<svg width="352" height="400" viewBox="0 0 352 400" fill="none" xmlns="http://www.w3.org/2000/svg">
<path d="M0.5 72.5H351.5V358C351.5 360.371 351.499 362.099 351.321 363.42C351.146 364.726 350.806 365.558 350.182 366.182C349.558 366.806 348.726 367.146 347.42 367.321C346.099 367.499 344.371 367.5 342 367.5H9.99999C7.62884 367.5 5.90077 367.499 4.58026 367.321C3.27414 367.146 2.44187 366.806 1.81802 366.182C1.19417 365.558 0.854204 364.726 0.6786 363.42C0.501062 362.099 0.5 360.371 0.5 358V72.5Z" fill="#FAFAFC"/>
<path d="M0.5 72.5H351.5V358C351.5 360.371 351.499 362.099 351.321 363.42C351.146 364.726 350.806 365.558 350.182 366.182C349.558 366.806 348.726 367.146 347.42 367.321C346.099 367.499 344.371 367.5 342 367.5H9.99999C7.62884 367.5 5.90077 367.499 4.58026 367.321C3.27414 367.146 2.44187 366.806 1.81802 366.182C1.19417 365.558 0.854204 364.726 0.6786 363.42C0.501062 362.099 0.5 360.371 0.5 358V72.5Z" stroke="#E6E6F0"/>
<path d="M118.01 86.4545H121.05V96.5966C121.05 97.5341 120.839 98.3485 120.418 99.0398C120.001 99.7311 119.421 100.264 118.678 100.638C117.934 101.012 117.07 101.199 116.085 101.199C115.209 101.199 114.414 101.045 113.699 100.737C112.989 100.425 112.425 99.9512 112.009 99.3168C111.592 98.6776 111.386 97.875 111.391 96.9091H114.452C114.461 97.2926 114.539 97.6217 114.686 97.8963C114.838 98.1662 115.044 98.3745 115.304 98.5213C115.569 98.6634 115.882 98.7344 116.241 98.7344C116.62 98.7344 116.94 98.6539 117.2 98.4929C117.465 98.3272 117.667 98.0857 117.804 97.7685C117.941 97.4512 118.01 97.0606 118.01 96.5966V86.4545ZM126.646 101.206C125.95 101.206 125.33 101.085 124.786 100.844C124.241 100.598 123.81 100.235 123.493 99.7571C123.18 99.2741 123.024 98.6728 123.024 97.9531C123.024 97.3471 123.135 96.8381 123.358 96.4261C123.58 96.0142 123.884 95.6828 124.267 95.4318C124.651 95.1809 125.086 94.9915 125.574 94.8636C126.066 94.7358 126.582 94.6458 127.122 94.5938C127.757 94.5275 128.268 94.4659 128.656 94.4091C129.045 94.3475 129.326 94.2576 129.501 94.1392C129.677 94.0208 129.764 93.8456 129.764 93.6136V93.571C129.764 93.1212 129.622 92.7732 129.338 92.527C129.059 92.2808 128.661 92.1577 128.145 92.1577C127.6 92.1577 127.167 92.2784 126.845 92.5199C126.523 92.7566 126.31 93.0549 126.206 93.4148L123.408 93.1875C123.55 92.5246 123.829 91.9517 124.246 91.4688C124.662 90.9811 125.2 90.607 125.858 90.3466C126.521 90.0814 127.288 89.9489 128.159 89.9489C128.765 89.9489 129.345 90.0199 129.899 90.1619C130.458 90.304 130.953 90.5241 131.384 90.8224C131.819 91.1207 132.162 91.5043 132.413 91.973C132.664 92.437 132.79 92.9934 132.79 93.642V101H129.92V99.4872H129.835C129.66 99.8281 129.426 100.129 129.132 100.389C128.839 100.645 128.486 100.846 128.074 100.993C127.662 101.135 127.186 101.206 126.646 101.206ZM127.513 99.1179C127.958 99.1179 128.351 99.0303 128.692 98.8551C129.033 98.6752 129.3 98.4337 129.494 98.1307C129.688 97.8277 129.786 97.4844 129.786 97.1009V95.9432C129.691 96.0047 129.561 96.0616 129.395 96.1136C129.234 96.161 129.052 96.206 128.848 96.2486C128.644 96.2865 128.441 96.322 128.237 96.3551C128.034 96.3835 127.849 96.4096 127.683 96.4332C127.328 96.4853 127.018 96.5682 126.753 96.6818C126.488 96.7955 126.282 96.9493 126.135 97.1435C125.988 97.3329 125.915 97.5696 125.915 97.8537C125.915 98.2656 126.064 98.5805 126.362 98.7983C126.665 99.0114 127.049 99.1179 127.513 99.1179ZM138.163 94.6932V101H135.137V90.0909H138.021V92.0156H138.148C138.39 91.3812 138.795 90.8793 139.363 90.5099C139.931 90.1359 140.62 89.9489 141.43 89.9489C142.187 89.9489 142.848 90.1146 143.411 90.446C143.975 90.7775 144.413 91.2509 144.725 91.8665C145.038 92.4773 145.194 93.2064 145.194 94.054V101H142.168V94.5938C142.173 93.9261 142.003 93.4053 141.657 93.0313C141.311 92.6525 140.835 92.4631 140.229 92.4631C139.822 92.4631 139.462 92.5507 139.15 92.7259C138.842 92.901 138.601 93.1567 138.425 93.4929C138.255 93.8243 138.167 94.2244 138.163 94.6932ZM152.55 101.213C151.428 101.213 150.462 100.986 149.652 100.531C148.847 100.072 148.227 99.4233 147.792 98.5852C147.356 97.7424 147.138 96.7457 147.138 95.5952C147.138 94.473 147.356 93.4882 147.792 92.6406C148.227 91.7931 148.84 91.1326 149.631 90.6591C150.426 90.1856 151.359 89.9489 152.429 89.9489C153.149 89.9489 153.819 90.0649 154.439 90.2969C155.064 90.5241 155.609 90.8674 156.073 91.3267C156.542 91.786 156.906 92.3636 157.167 93.0597C157.427 93.7509 157.557 94.5606 157.557 95.4886V96.3196H148.346V94.4446H154.709C154.709 94.009 154.614 93.6231 154.425 93.2869C154.236 92.9508 153.973 92.688 153.637 92.4986C153.305 92.3045 152.919 92.2074 152.479 92.2074C152.02 92.2074 151.613 92.3139 151.257 92.527C150.907 92.7353 150.632 93.017 150.434 93.3722C150.235 93.7225 150.133 94.1132 150.128 94.544V96.3267C150.128 96.8665 150.228 97.3329 150.426 97.7259C150.63 98.1188 150.917 98.4219 151.286 98.6349C151.655 98.848 152.093 98.9545 152.6 98.9545C152.936 98.9545 153.244 98.9072 153.523 98.8125C153.802 98.7178 154.042 98.5758 154.24 98.3864C154.439 98.197 154.591 97.965 154.695 97.6903L157.493 97.875C157.351 98.5473 157.06 99.1345 156.62 99.6364C156.184 100.134 155.621 100.522 154.929 100.801C154.243 101.076 153.45 101.213 152.55 101.213ZM159.532 101V90.0909H162.557V101H159.532ZM161.051 88.6847C160.602 88.6847 160.216 88.5355 159.894 88.2372C159.577 87.9342 159.418 87.572 159.418 87.1506C159.418 86.7339 159.577 86.3764 159.894 86.0781C160.216 85.7751 160.602 85.6236 161.051 85.6236C161.501 85.6236 161.885 85.7751 162.202 86.0781C162.524 86.3764 162.685 86.7339 162.685 87.1506C162.685 87.572 162.524 87.9342 162.202 88.2372C161.885 88.5355 161.501 88.6847 161.051 88.6847ZM164.981 101V90.0909H167.914V91.9943H168.028C168.227 91.3172 168.56 90.8059 169.029 90.4602C169.498 90.1098 170.038 89.9347 170.648 89.9347C170.8 89.9347 170.963 89.9441 171.138 89.9631C171.314 89.982 171.468 90.0081 171.6 90.0412V92.7259C171.458 92.6832 171.262 92.6454 171.011 92.6122C170.76 92.5791 170.53 92.5625 170.322 92.5625C169.877 92.5625 169.479 92.6596 169.129 92.8537C168.783 93.0431 168.508 93.3082 168.305 93.6491C168.106 93.9901 168.006 94.383 168.006 94.8281V101H164.981ZM177.586 101.213C176.482 101.213 175.528 100.979 174.723 100.51C173.923 100.036 173.305 99.3783 172.87 98.5355C172.434 97.688 172.216 96.7055 172.216 95.5881C172.216 94.4612 172.434 93.4763 172.87 92.6335C173.305 91.786 173.923 91.1278 174.723 90.6591C175.528 90.1856 176.482 89.9489 177.586 89.9489C178.689 89.9489 179.641 90.1856 180.441 90.6591C181.246 91.1278 181.866 91.786 182.301 92.6335C182.737 93.4763 182.955 94.4612 182.955 95.5881C182.955 96.7055 182.737 97.688 182.301 98.5355C181.866 99.3783 181.246 100.036 180.441 100.51C179.641 100.979 178.689 101.213 177.586 101.213ZM177.6 98.8693C178.102 98.8693 178.521 98.7273 178.857 98.4432C179.193 98.1544 179.446 97.7614 179.617 97.2642C179.792 96.767 179.88 96.2012 179.88 95.5668C179.88 94.9323 179.792 94.3665 179.617 93.8693C179.446 93.3722 179.193 92.9792 178.857 92.6903C178.521 92.4015 178.102 92.2571 177.6 92.2571C177.093 92.2571 176.667 92.4015 176.321 92.6903C175.98 92.9792 175.722 93.3722 175.547 93.8693C175.377 94.3665 175.292 94.9323 175.292 95.5668C175.292 96.2012 175.377 96.767 175.547 97.2642C175.722 97.7614 175.98 98.1544 176.321 98.4432C176.667 98.7273 177.093 98.8693 177.6 98.8693ZM189.523 101V98.7841L194.7 93.9901C195.141 93.5639 195.51 93.1804 195.808 92.8395C196.111 92.4986 196.341 92.1648 196.497 91.8381C196.653 91.5066 196.732 91.1491 196.732 90.7656C196.732 90.3395 196.634 89.9725 196.44 89.6648C196.246 89.3523 195.981 89.1132 195.645 88.9474C195.309 88.777 194.928 88.6918 194.501 88.6918C194.056 88.6918 193.668 88.7817 193.337 88.9616C193.005 89.1416 192.75 89.3996 192.57 89.7358C192.39 90.072 192.3 90.4721 192.3 90.9361H189.381C189.381 89.9844 189.596 89.1581 190.027 88.4574C190.458 87.7566 191.062 87.2145 191.838 86.831C192.615 86.4474 193.509 86.2557 194.523 86.2557C195.564 86.2557 196.471 86.4403 197.243 86.8097C198.019 87.1742 198.623 87.6809 199.054 88.3295C199.485 88.9782 199.7 89.7216 199.7 90.5597C199.7 91.1089 199.591 91.651 199.374 92.1861C199.161 92.7211 198.779 93.3153 198.23 93.9688C197.681 94.6174 196.907 95.3963 195.908 96.3054L193.784 98.3864V98.4858H199.892V101H189.523ZM207.824 101.32C206.602 101.315 205.551 101.014 204.67 100.418C203.794 99.821 203.119 98.9569 202.646 97.8253C202.177 96.6937 201.945 95.3324 201.95 93.7415C201.95 92.1553 202.184 90.8035 202.653 89.6861C203.127 88.5687 203.801 87.7188 204.677 87.1364C205.558 86.5492 206.607 86.2557 207.824 86.2557C209.04 86.2557 210.087 86.5492 210.963 87.1364C211.843 87.7235 212.52 88.5758 212.994 89.6932C213.467 90.8059 213.702 92.1553 213.697 93.7415C213.697 95.3371 213.46 96.7008 212.987 97.8324C212.518 98.964 211.846 99.8281 210.97 100.425C210.094 101.021 209.045 101.32 207.824 101.32ZM207.824 98.7699C208.657 98.7699 209.322 98.3509 209.819 97.5128C210.316 96.6747 210.563 95.4176 210.558 93.7415C210.558 92.6383 210.444 91.7197 210.217 90.9858C209.994 90.2519 209.677 89.7003 209.265 89.331C208.858 88.9616 208.377 88.777 207.824 88.777C206.995 88.777 206.332 89.1913 205.835 90.0199C205.338 90.8485 205.087 92.089 205.082 93.7415C205.082 94.8589 205.193 95.7917 205.416 96.5398C205.643 97.2831 205.963 97.8419 206.375 98.2159C206.787 98.5852 207.27 98.7699 207.824 98.7699ZM215.89 101V98.7841L221.067 93.9901C221.508 93.5639 221.877 93.1804 222.175 92.8395C222.478 92.4986 222.708 92.1648 222.864 91.8381C223.021 91.5066 223.099 91.1491 223.099 90.7656C223.099 90.3395 223.002 89.9725 222.808 89.6648C222.613 89.3523 222.348 89.1132 222.012 88.9474C221.676 88.777 221.295 88.6918 220.869 88.6918C220.424 88.6918 220.035 88.7817 219.704 88.9616C219.372 89.1416 219.117 89.3996 218.937 89.7358C218.757 90.072 218.667 90.4721 218.667 90.9361H215.748C215.748 89.9844 215.963 89.1581 216.394 88.4574C216.825 87.7566 217.429 87.2145 218.205 86.831C218.982 86.4474 219.877 86.2557 220.89 86.2557C221.932 86.2557 222.838 86.4403 223.61 86.8097C224.387 87.1742 224.99 87.6809 225.421 88.3295C225.852 88.9782 226.067 89.7216 226.067 90.5597C226.067 91.1089 225.959 91.651 225.741 92.1861C225.528 92.7211 225.147 93.3153 224.597 93.9688C224.048 94.6174 223.274 95.3963 222.275 96.3054L220.151 98.3864V98.4858H226.259V101H215.89ZM234.191 101.32C232.969 101.315 231.918 101.014 231.037 100.418C230.161 99.821 229.487 98.9569 229.013 97.8253C228.544 96.6937 228.312 95.3324 228.317 93.7415C228.317 92.1553 228.551 90.8035 229.02 89.6861C229.494 88.5687 230.168 87.7188 231.044 87.1364C231.925 86.5492 232.974 86.2557 234.191 86.2557C235.408 86.2557 236.454 86.5492 237.33 87.1364C238.211 87.7235 238.888 88.5758 239.361 89.6932C239.835 90.8059 240.069 92.1553 240.064 93.7415C240.064 95.3371 239.828 96.7008 239.354 97.8324C238.885 98.964 238.213 99.8281 237.337 100.425C236.461 101.021 235.412 101.32 234.191 101.32ZM234.191 98.7699C235.024 98.7699 235.689 98.3509 236.186 97.5128C236.684 96.6747 236.93 95.4176 236.925 93.7415C236.925 92.6383 236.811 91.7197 236.584 90.9858C236.362 90.2519 236.044 89.7003 235.632 89.331C235.225 88.9616 234.745 88.777 234.191 88.777C233.362 88.777 232.699 89.1913 232.202 90.0199C231.705 90.8485 231.454 92.089 231.449 93.7415C231.449 94.8589 231.56 95.7917 231.783 96.5398C232.01 97.2831 232.33 97.8419 232.742 98.2159C233.154 98.5852 233.637 98.7699 234.191 98.7699Z" fill="black"/>
<mask id="path-3-inside-1_286_624" fill="white">
<path d="M37.77 126H314.23V358H37.77V126Z"/>
</mask>
<path d="M314.23 356.426H37.77V359.574H314.23V356.426Z" fill="#DDDDDD" mask="url(#path-3-inside-1_286_624)"/>
<g clip-path="url(#clip0_286_624)">
<path d="M52.7003 149.344C51.7025 149.344 50.8113 149.172 50.0267 148.828C49.2469 148.484 48.6294 148.007 48.1741 147.396C47.7236 146.781 47.4815 146.069 47.4476 145.261H49.7288C49.7579 145.701 49.9056 146.084 50.172 146.408C50.4432 146.728 50.7968 146.975 51.2327 147.149C51.6686 147.324 52.153 147.411 52.6858 147.411C53.2718 147.411 53.7901 147.309 54.2405 147.106C54.6958 146.902 55.0518 146.619 55.3085 146.256C55.5652 145.888 55.6935 145.464 55.6935 144.984C55.6935 144.486 55.5652 144.047 55.3085 143.669C55.0566 143.287 54.6861 142.987 54.1969 142.769C53.7126 142.551 53.1265 142.442 52.4387 142.442H51.1819V140.611H52.4387C52.9909 140.611 53.4752 140.512 53.8918 140.313C54.3131 140.114 54.6425 139.838 54.8798 139.485C55.1172 139.126 55.2358 138.707 55.2358 138.228C55.2358 137.768 55.1317 137.368 54.9234 137.029C54.72 136.685 54.4294 136.416 54.0516 136.223C53.6787 136.029 53.2379 135.932 52.7293 135.932C52.245 135.932 51.7921 136.022 51.3708 136.201C50.9542 136.375 50.6152 136.627 50.3536 136.956C50.0921 137.281 49.9516 137.671 49.9322 138.126H47.76C47.7842 137.322 48.0215 136.615 48.4719 136.005C48.9272 135.394 49.5278 134.917 50.2737 134.573C51.0196 134.23 51.8478 134.058 52.7584 134.058C53.7126 134.058 54.5359 134.244 55.2286 134.617C55.926 134.985 56.4636 135.477 56.8414 136.092C57.2241 136.707 57.413 137.38 57.4081 138.112C57.413 138.945 57.1805 139.652 56.7107 140.233C56.2457 140.814 55.6257 141.204 54.8508 141.403V141.519C55.8388 141.669 56.6041 142.061 57.1466 142.696C57.6939 143.33 57.9651 144.117 57.9603 145.057C57.9651 145.876 57.7375 146.609 57.2773 147.258C56.8221 147.907 56.1997 148.418 55.4102 148.791C54.6207 149.16 53.7174 149.344 52.7003 149.344ZM66.3515 134.261V149.14H64.0993V136.513H64.0122L60.4522 138.838V136.688L64.1647 134.261H66.3515Z" fill="#9C9D9F"/>
<path d="M99.2525 134.261V149.14H97.0003V136.513H96.9132L93.3532 138.838V136.688L97.0657 134.261H99.2525Z" fill="black"/>
<path d="M131.664 149.14V147.513L136.698 142.296C137.236 141.73 137.679 141.233 138.028 140.807C138.381 140.376 138.645 139.967 138.82 139.579C138.994 139.192 139.081 138.78 139.081 138.344C139.081 137.85 138.965 137.424 138.733 137.065C138.5 136.702 138.183 136.424 137.781 136.23C137.379 136.031 136.926 135.932 136.422 135.932C135.89 135.932 135.425 136.041 135.027 136.259C134.63 136.477 134.325 136.784 134.112 137.182C133.899 137.579 133.792 138.044 133.792 138.577H131.649C131.649 137.671 131.857 136.879 132.274 136.201C132.69 135.523 133.262 134.997 133.988 134.624C134.715 134.247 135.541 134.058 136.466 134.058C137.401 134.058 138.224 134.244 138.936 134.617C139.653 134.985 140.212 135.489 140.614 136.128C141.016 136.763 141.217 137.48 141.217 138.279C141.217 138.831 141.113 139.371 140.905 139.899C140.701 140.427 140.346 141.015 139.837 141.664C139.328 142.308 138.621 143.091 137.716 144.011L134.759 147.106V147.215H141.457V149.14H131.664Z" fill="black"/>
<path d="M176.018 149.344C175.02 149.344 174.129 149.172 173.345 148.828C172.565 148.484 171.947 148.007 171.492 147.396C171.042 146.781 170.799 146.069 170.765 145.261H173.047C173.076 145.701 173.223 146.084 173.49 146.408C173.761 146.728 174.115 146.975 174.551 147.149C174.987 147.324 175.471 147.411 176.004 147.411C176.59 147.411 177.108 147.309 177.558 147.106C178.014 146.902 178.37 146.619 178.626 146.256C178.883 145.888 179.011 145.464 179.011 144.984C179.011 144.486 178.883 144.047 178.626 143.669C178.375 143.287 178.004 142.987 177.515 142.769C177.03 142.551 176.444 142.442 175.757 142.442H174.5V140.611H175.757C176.309 140.611 176.793 140.512 177.21 140.313C177.631 140.114 177.96 139.838 178.198 139.485C178.435 139.126 178.554 138.707 178.554 138.228C178.554 137.768 178.45 137.368 178.241 137.029C178.038 136.685 177.747 136.416 177.369 136.223C176.997 136.029 176.556 135.932 176.047 135.932C175.563 135.932 175.11 136.022 174.689 136.201C174.272 136.375 173.933 136.627 173.672 136.956C173.41 137.281 173.27 137.671 173.25 138.126H171.078C171.102 137.322 171.339 136.615 171.79 136.005C172.245 135.394 172.846 134.917 173.592 134.573C174.337 134.23 175.166 134.058 176.076 134.058C177.03 134.058 177.854 134.244 178.546 134.617C179.244 134.985 179.782 135.477 180.159 136.092C180.542 136.707 180.731 137.38 180.726 138.112C180.731 138.945 180.498 139.652 180.029 140.233C179.564 140.814 178.944 141.204 178.169 141.403V141.519C179.157 141.669 179.922 142.061 180.464 142.696C181.012 143.33 181.283 144.117 181.278 145.057C181.283 145.876 181.055 146.609 180.595 147.258C180.14 147.907 179.518 148.418 178.728 148.791C177.939 149.16 177.035 149.344 176.018 149.344Z" fill="black"/>
<path d="M209.92 146.234V144.418L216.35 134.261H217.781V136.935H216.873L212.274 144.214V144.331H221.087V146.234H209.92ZM216.974 149.14V145.682L216.989 144.854V134.261H219.118V149.14H216.974Z" fill="black"/>
<path d="M254.988 149.344C254.077 149.344 253.259 149.169 252.532 148.82C251.811 148.467 251.234 147.983 250.803 147.367C250.372 146.752 250.142 146.05 250.113 145.261H252.292C252.346 145.9 252.629 146.425 253.143 146.837C253.656 147.249 254.271 147.455 254.988 147.455C255.559 147.455 256.066 147.324 256.506 147.062C256.952 146.796 257.301 146.43 257.552 145.965C257.809 145.5 257.938 144.97 257.938 144.374C257.938 143.769 257.807 143.229 257.545 142.754C257.284 142.279 256.923 141.906 256.463 141.635C256.007 141.364 255.484 141.226 254.893 141.221C254.443 141.221 253.99 141.299 253.535 141.454C253.08 141.609 252.711 141.812 252.431 142.064L250.374 141.759L251.21 134.261H259.391V136.186H253.077L252.605 140.349H252.692C252.983 140.068 253.368 139.833 253.847 139.645C254.332 139.456 254.85 139.361 255.402 139.361C256.308 139.361 257.114 139.577 257.821 140.008C258.533 140.439 259.093 141.027 259.5 141.773C259.911 142.514 260.115 143.367 260.11 144.331C260.115 145.294 259.897 146.154 259.456 146.91C259.02 147.665 258.415 148.261 257.64 148.697C256.87 149.128 255.986 149.344 254.988 149.344Z" fill="black"/>
<path d="M294.606 149.344C293.942 149.334 293.288 149.213 292.644 148.98C292.005 148.748 291.423 148.36 290.9 147.818C290.377 147.275 289.958 146.546 289.643 145.631C289.333 144.716 289.178 143.573 289.178 142.202C289.178 140.904 289.307 139.751 289.563 138.744C289.825 137.736 290.2 136.886 290.69 136.194C291.179 135.496 291.77 134.966 292.462 134.603C293.155 134.239 293.932 134.058 294.794 134.058C295.681 134.058 296.468 134.232 297.156 134.581C297.843 134.929 298.4 135.411 298.827 136.026C299.258 136.642 299.531 137.341 299.648 138.126H297.432C297.282 137.506 296.984 137 296.538 136.608C296.092 136.215 295.511 136.019 294.794 136.019C293.705 136.019 292.855 136.494 292.244 137.443C291.639 138.393 291.334 139.712 291.329 141.403H291.438C291.695 140.981 292.009 140.623 292.382 140.327C292.76 140.027 293.182 139.797 293.647 139.637C294.116 139.473 294.61 139.39 295.129 139.39C295.991 139.39 296.771 139.601 297.468 140.022C298.17 140.439 298.73 141.015 299.146 141.751C299.563 142.488 299.771 143.33 299.771 144.28C299.771 145.229 299.556 146.089 299.124 146.859C298.698 147.629 298.098 148.239 297.323 148.69C296.548 149.135 295.642 149.353 294.606 149.344ZM294.598 147.455C295.17 147.455 295.681 147.314 296.131 147.033C296.582 146.752 296.938 146.375 297.199 145.9C297.461 145.425 297.591 144.895 297.591 144.309C297.591 143.737 297.463 143.217 297.206 142.747C296.955 142.277 296.606 141.904 296.16 141.628C295.72 141.352 295.216 141.214 294.649 141.214C294.218 141.214 293.818 141.296 293.45 141.461C293.087 141.626 292.767 141.853 292.491 142.144C292.215 142.434 291.997 142.769 291.837 143.146C291.682 143.519 291.605 143.914 291.605 144.331C291.605 144.888 291.733 145.403 291.99 145.878C292.252 146.353 292.608 146.735 293.058 147.026C293.513 147.312 294.027 147.455 294.598 147.455Z" fill="black"/>
</g>
<g clip-path="url(#clip1_286_624)">
<path d="M53.5258 199.32L60.0209 186.475V186.366H52.5087V184.441H62.3457V186.432L55.8724 199.32H53.5258Z" fill="black"/>
<path d="M97.0067 199.523C95.9653 199.523 95.0451 199.344 94.2459 198.986C93.4516 198.627 92.8292 198.133 92.3788 197.504C91.9283 196.874 91.7055 196.157 91.7104 195.353C91.7055 194.724 91.8339 194.145 92.0954 193.617C92.3618 193.084 92.7227 192.641 93.1779 192.287C93.6332 191.929 94.1418 191.701 94.7036 191.604V191.517C93.9626 191.338 93.3693 190.941 92.9237 190.326C92.4781 189.711 92.2577 189.004 92.2625 188.204C92.2577 187.444 92.4587 186.766 92.8655 186.17C93.2772 185.57 93.8415 185.097 94.5583 184.753C95.2752 184.41 96.0913 184.238 97.0067 184.238C97.9124 184.238 98.7213 184.412 99.4333 184.761C100.15 185.105 100.714 185.577 101.126 186.177C101.538 186.773 101.746 187.449 101.751 188.204C101.746 189.004 101.518 189.711 101.068 190.326C100.617 190.941 100.031 191.338 99.3098 191.517V191.604C99.8667 191.701 100.368 191.929 100.814 192.287C101.264 192.641 101.622 193.084 101.889 193.617C102.16 194.145 102.298 194.724 102.303 195.353C102.298 196.157 102.071 196.874 101.62 197.504C101.17 198.133 100.545 198.627 99.7457 198.986C98.9513 199.344 98.0383 199.523 97.0067 199.523ZM97.0067 197.685C97.6218 197.685 98.1546 197.584 98.605 197.38C99.0555 197.172 99.4042 196.884 99.6512 196.516C99.8982 196.143 100.024 195.707 100.029 195.208C100.024 194.69 99.8885 194.232 99.6222 193.835C99.3606 193.438 99.0046 193.125 98.5542 192.898C98.1037 192.67 97.5879 192.556 97.0067 192.556C96.4206 192.556 95.9 192.67 95.4447 192.898C94.9894 193.125 94.631 193.438 94.3694 193.835C94.1079 194.232 93.9795 194.69 93.9844 195.208C93.9795 195.707 94.0982 196.143 94.3404 196.516C94.5874 196.884 94.9385 197.172 95.3938 197.38C95.8491 197.584 96.3867 197.685 97.0067 197.685ZM97.0067 190.762C97.5007 190.762 97.9391 190.662 98.3217 190.464C98.7043 190.265 99.0046 189.989 99.2226 189.636C99.4454 189.282 99.5592 188.868 99.564 188.393C99.5592 187.928 99.4478 187.521 99.2298 187.173C99.0167 186.824 98.7188 186.555 98.3362 186.366C97.9536 186.173 97.5104 186.076 97.0067 186.076C96.4933 186.076 96.0428 186.173 95.6554 186.366C95.2727 186.555 94.9749 186.824 94.7618 187.173C94.5486 187.521 94.4445 187.928 94.4493 188.393C94.4445 188.868 94.5511 189.282 94.769 189.636C94.987 189.989 95.2873 190.265 95.6699 190.464C96.0574 190.662 96.503 190.762 97.0067 190.762Z" fill="black"/>
<path d="M136.381 184.238C137.045 184.242 137.699 184.363 138.343 184.601C138.987 184.838 139.568 185.226 140.087 185.763C140.61 186.301 141.026 187.027 141.336 187.943C141.651 188.853 141.811 189.987 141.816 191.343C141.816 192.646 141.685 193.806 141.423 194.823C141.162 195.835 140.787 196.69 140.297 197.388C139.813 198.085 139.225 198.615 138.532 198.979C137.839 199.342 137.06 199.523 136.193 199.523C135.306 199.523 134.519 199.349 133.831 199C133.144 198.652 132.584 198.17 132.153 197.555C131.722 196.935 131.453 196.223 131.347 195.419H133.563C133.708 196.058 134.003 196.576 134.449 196.973C134.899 197.366 135.481 197.562 136.193 197.562C137.282 197.562 138.132 197.087 138.743 196.138C139.353 195.184 139.66 193.852 139.665 192.142H139.549C139.297 192.559 138.982 192.917 138.605 193.217C138.232 193.518 137.813 193.75 137.348 193.915C136.883 194.079 136.386 194.162 135.858 194.162C135.001 194.162 134.221 193.951 133.519 193.53C132.817 193.108 132.257 192.53 131.841 191.793C131.424 191.057 131.216 190.217 131.216 189.272C131.216 188.333 131.429 187.48 131.855 186.715C132.286 185.95 132.887 185.344 133.657 184.899C134.432 184.448 135.34 184.228 136.381 184.238ZM136.389 186.127C135.822 186.127 135.311 186.267 134.856 186.548C134.405 186.824 134.049 187.199 133.788 187.674C133.526 188.144 133.395 188.667 133.395 189.243C133.395 189.82 133.521 190.343 133.773 190.813C134.03 191.278 134.379 191.648 134.819 191.924C135.265 192.195 135.774 192.331 136.345 192.331C136.771 192.331 137.169 192.249 137.537 192.084C137.905 191.919 138.227 191.692 138.503 191.401C138.779 191.106 138.994 190.771 139.149 190.398C139.304 190.025 139.382 189.633 139.382 189.221C139.382 188.674 139.251 188.166 138.99 187.696C138.733 187.226 138.379 186.848 137.929 186.562C137.478 186.272 136.965 186.127 136.389 186.127Z" fill="black"/>
<path d="M171.638 184.441V199.32H169.386V186.693H169.299L165.739 189.018V186.868L169.451 184.441H171.638ZM180.843 199.567C179.695 199.562 178.714 199.26 177.901 198.659C177.087 198.058 176.465 197.184 176.034 196.036C175.603 194.888 175.387 193.506 175.387 191.888C175.387 190.275 175.603 188.897 176.034 187.754C176.47 186.611 177.094 185.739 177.908 185.138C178.727 184.538 179.705 184.238 180.843 184.238C181.981 184.238 182.957 184.54 183.771 185.146C184.585 185.746 185.207 186.618 185.638 187.761C186.074 188.899 186.292 190.275 186.292 191.888C186.292 193.51 186.076 194.896 185.645 196.043C185.214 197.187 184.592 198.061 183.778 198.666C182.965 199.267 181.986 199.567 180.843 199.567ZM180.843 197.627C181.851 197.627 182.638 197.136 183.204 196.152C183.776 195.169 184.062 193.748 184.062 191.888C184.062 190.653 183.931 189.609 183.669 188.757C183.413 187.899 183.042 187.25 182.558 186.809C182.078 186.364 181.507 186.141 180.843 186.141C179.841 186.141 179.053 186.635 178.482 187.623C177.91 188.611 177.622 190.033 177.617 191.888C177.617 193.128 177.746 194.176 178.002 195.034C178.264 195.886 178.635 196.533 179.114 196.973C179.594 197.409 180.17 197.627 180.843 197.627Z" fill="black"/>
<path d="M212.9 184.441V199.32H210.648V186.693H210.561L207.001 189.018V186.868L210.714 184.441H212.9ZM222.57 184.441V199.32H220.318V186.693H220.231L216.671 189.018V186.868L220.384 184.441H222.57Z" fill="black"/>
<path d="M250.957 184.441V199.32H248.704V186.693H248.617L245.057 189.018V186.868L248.77 184.441H250.957ZM254.982 199.32V197.693L260.016 192.476C260.554 191.91 260.997 191.413 261.346 190.987C261.699 190.556 261.963 190.147 262.138 189.759C262.312 189.372 262.399 188.96 262.399 188.524C262.399 188.03 262.283 187.604 262.051 187.245C261.818 186.882 261.501 186.604 261.099 186.41C260.697 186.211 260.244 186.112 259.74 186.112C259.207 186.112 258.742 186.221 258.345 186.439C257.948 186.657 257.643 186.964 257.43 187.362C257.217 187.759 257.11 188.224 257.11 188.757H254.967C254.967 187.851 255.175 187.059 255.592 186.381C256.008 185.703 256.58 185.177 257.306 184.804C258.033 184.426 258.859 184.238 259.784 184.238C260.719 184.238 261.542 184.424 262.254 184.797C262.971 185.165 263.53 185.669 263.932 186.308C264.334 186.943 264.535 187.659 264.535 188.459C264.535 189.011 264.431 189.551 264.223 190.079C264.019 190.607 263.663 191.195 263.155 191.844C262.646 192.488 261.939 193.271 261.033 194.191L258.076 197.286V197.395H264.775V199.32H254.982Z" fill="black"/>
<path d="M290.131 184.441V199.32H287.879V186.693H287.792L284.232 189.018V186.868L287.944 184.441H290.131ZM299.336 199.523C298.338 199.523 297.447 199.352 296.662 199.008C295.883 198.664 295.265 198.187 294.81 197.576C294.359 196.961 294.117 196.249 294.083 195.44H296.365C296.394 195.881 296.541 196.264 296.808 196.588C297.079 196.908 297.433 197.155 297.868 197.329C298.304 197.504 298.789 197.591 299.322 197.591C299.908 197.591 300.426 197.489 300.876 197.286C301.332 197.082 301.688 196.799 301.944 196.436C302.201 196.068 302.329 195.644 302.329 195.164C302.329 194.666 302.201 194.227 301.944 193.849C301.692 193.467 301.322 193.166 300.833 192.949C300.348 192.731 299.762 192.622 299.074 192.622H297.818V190.791H299.074C299.627 190.791 300.111 190.691 300.528 190.493C300.949 190.294 301.278 190.018 301.516 189.665C301.753 189.306 301.872 188.887 301.872 188.408C301.872 187.948 301.767 187.548 301.559 187.209C301.356 186.865 301.065 186.596 300.687 186.403C300.314 186.209 299.874 186.112 299.365 186.112C298.881 186.112 298.428 186.202 298.007 186.381C297.59 186.555 297.251 186.807 296.989 187.136C296.728 187.461 296.587 187.851 296.568 188.306H294.396C294.42 187.502 294.657 186.795 295.108 186.185C295.563 185.574 296.164 185.097 296.909 184.753C297.655 184.41 298.484 184.238 299.394 184.238C300.348 184.238 301.172 184.424 301.864 184.797C302.562 185.165 303.099 185.657 303.477 186.272C303.86 186.887 304.049 187.56 304.044 188.292C304.049 189.125 303.816 189.832 303.346 190.413C302.881 190.994 302.261 191.384 301.487 191.583V191.699C302.475 191.849 303.24 192.241 303.782 192.876C304.33 193.51 304.601 194.297 304.596 195.237C304.601 196.056 304.373 196.789 303.913 197.438C303.458 198.087 302.835 198.598 302.046 198.971C301.256 199.339 300.353 199.523 299.336 199.523Z" fill="black"/>
</g>
<g clip-path="url(#clip2_286_624)">
<path d="M53.0654 234.621V249.5H50.8132V236.873H50.726L47.166 239.198V237.047L50.8785 234.621H53.0654ZM56.7779 246.594V244.778L63.2075 234.621H64.6388V237.295H63.7306L59.1318 244.574V244.69H67.9444V246.594H56.7779ZM63.8323 249.5V246.042L63.8469 245.214V234.621H65.9756V249.5H63.8323Z" fill="black"/>
<path d="M92.9091 234.621V249.5H90.6569V236.873H90.5697L87.0098 239.198V237.047L90.7223 234.621H92.9091ZM101.845 249.703C100.935 249.703 100.116 249.529 99.3897 249.18C98.668 248.827 98.0916 248.342 97.6606 247.727C97.2295 247.112 96.9994 246.41 96.9704 245.62H99.1499C99.2032 246.26 99.4865 246.785 99.9999 247.197C100.513 247.609 101.128 247.814 101.845 247.814C102.417 247.814 102.923 247.684 103.364 247.422C103.809 247.156 104.158 246.79 104.41 246.325C104.667 245.86 104.795 245.33 104.795 244.734C104.795 244.129 104.664 243.589 104.403 243.114C104.141 242.639 103.78 242.266 103.32 241.995C102.865 241.724 102.342 241.586 101.751 241.581C101.3 241.581 100.848 241.658 100.392 241.813C99.937 241.968 99.5689 242.172 99.288 242.424L97.2319 242.119L98.0674 234.621H106.248V236.546H99.9346L99.4623 240.709H99.5495C99.8401 240.428 100.225 240.193 100.705 240.004C101.189 239.816 101.707 239.721 102.259 239.721C103.165 239.721 103.972 239.937 104.679 240.368C105.391 240.799 105.95 241.387 106.357 242.133C106.769 242.874 106.972 243.727 106.967 244.69C106.972 245.654 106.754 246.514 106.313 247.27C105.877 248.025 105.272 248.621 104.497 249.057C103.727 249.488 102.843 249.703 101.845 249.703Z" fill="black"/>
<path d="M132.244 234.621V249.5H129.992V236.873H129.905L126.345 239.198V237.047L130.057 234.621H132.244ZM141.463 249.703C140.8 249.694 140.146 249.573 139.502 249.34C138.862 249.108 138.281 248.72 137.758 248.178C137.235 247.635 136.816 246.906 136.501 245.991C136.191 245.076 136.036 243.932 136.036 242.562C136.036 241.264 136.165 240.111 136.421 239.104C136.683 238.096 137.058 237.246 137.548 236.553C138.037 235.856 138.628 235.326 139.32 234.962C140.013 234.599 140.79 234.418 141.652 234.418C142.539 234.418 143.326 234.592 144.014 234.941C144.701 235.289 145.258 235.771 145.684 236.386C146.116 237.001 146.389 237.701 146.505 238.486H144.29C144.139 237.866 143.842 237.36 143.396 236.968C142.95 236.575 142.369 236.379 141.652 236.379C140.563 236.379 139.713 236.854 139.102 237.803C138.497 238.752 138.192 240.072 138.187 241.763H138.296C138.553 241.341 138.867 240.983 139.24 240.687C139.618 240.387 140.039 240.157 140.504 239.997C140.974 239.832 141.468 239.75 141.987 239.75C142.849 239.75 143.628 239.961 144.326 240.382C145.028 240.799 145.588 241.375 146.004 242.111C146.421 242.848 146.629 243.69 146.629 244.64C146.629 245.589 146.413 246.449 145.982 247.219C145.556 247.989 144.956 248.599 144.181 249.05C143.406 249.495 142.5 249.713 141.463 249.703ZM141.456 247.814C142.028 247.814 142.539 247.674 142.989 247.393C143.44 247.112 143.796 246.734 144.057 246.26C144.319 245.785 144.449 245.255 144.449 244.669C144.449 244.097 144.321 243.576 144.064 243.107C143.813 242.637 143.464 242.264 143.018 241.988C142.577 241.712 142.074 241.574 141.507 241.574C141.076 241.574 140.676 241.656 140.308 241.821C139.945 241.985 139.625 242.213 139.349 242.504C139.073 242.794 138.855 243.128 138.695 243.506C138.54 243.879 138.463 244.274 138.463 244.69C138.463 245.247 138.591 245.763 138.848 246.238C139.11 246.713 139.466 247.095 139.916 247.386C140.371 247.672 140.885 247.814 141.456 247.814Z" fill="black"/>
<path d="M172.317 234.621V249.5H170.065V236.873H169.978L166.418 239.198V237.047L170.131 234.621H172.317ZM176.844 249.5L183.339 236.655V236.546H175.827V234.621H185.664V236.612L179.19 249.5H176.844Z" fill="black"/>
<rect x="195.747" y="216.91" width="39.4943" height="50.18" rx="12.59" fill="#EC562A"/>
<path d="M211.272 234.621V249.5H209.02V236.873H208.933L205.373 239.198V237.047L209.085 234.621H211.272ZM220.325 249.703C219.283 249.703 218.363 249.524 217.564 249.166C216.769 248.807 216.147 248.313 215.697 247.684C215.246 247.054 215.023 246.337 215.028 245.533C215.023 244.904 215.152 244.325 215.413 243.797C215.68 243.264 216.041 242.821 216.496 242.467C216.951 242.109 217.46 241.881 218.022 241.784V241.697C217.28 241.518 216.687 241.121 216.242 240.506C215.796 239.891 215.576 239.183 215.58 238.384C215.576 237.624 215.777 236.946 216.183 236.35C216.595 235.749 217.159 235.277 217.876 234.933C218.593 234.589 219.409 234.418 220.325 234.418C221.23 234.418 222.039 234.592 222.751 234.941C223.468 235.284 224.032 235.757 224.444 236.357C224.856 236.953 225.064 237.629 225.069 238.384C225.064 239.183 224.836 239.891 224.386 240.506C223.935 241.121 223.349 241.518 222.628 241.697V241.784C223.185 241.881 223.686 242.109 224.132 242.467C224.582 242.821 224.94 243.264 225.207 243.797C225.478 244.325 225.616 244.904 225.621 245.533C225.616 246.337 225.388 247.054 224.938 247.684C224.488 248.313 223.863 248.807 223.064 249.166C222.269 249.524 221.356 249.703 220.325 249.703ZM220.325 247.865C220.94 247.865 221.472 247.764 221.923 247.56C222.373 247.352 222.722 247.064 222.969 246.696C223.216 246.323 223.342 245.887 223.347 245.388C223.342 244.87 223.206 244.412 222.94 244.015C222.678 243.618 222.322 243.305 221.872 243.078C221.422 242.85 220.906 242.736 220.325 242.736C219.739 242.736 219.218 242.85 218.763 243.078C218.307 243.305 217.949 243.618 217.687 244.015C217.426 244.412 217.297 244.87 217.302 245.388C217.297 245.887 217.416 246.323 217.658 246.696C217.905 247.064 218.256 247.352 218.712 247.56C219.167 247.764 219.705 247.865 220.325 247.865ZM220.325 240.942C220.819 240.942 221.257 240.842 221.64 240.644C222.022 240.445 222.322 240.169 222.54 239.816C222.763 239.462 222.877 239.048 222.882 238.573C222.877 238.108 222.766 237.701 222.548 237.353C222.335 237.004 222.037 236.735 221.654 236.546C221.271 236.352 220.828 236.256 220.325 236.256C219.811 236.256 219.361 236.352 218.973 236.546C218.591 236.735 218.293 237.004 218.08 237.353C217.867 237.701 217.762 238.108 217.767 238.573C217.762 239.048 217.869 239.462 218.087 239.816C218.305 240.169 218.605 240.445 218.988 240.644C219.375 240.842 219.821 240.942 220.325 240.942Z" fill="white"/>
<path d="M250.727 234.621V249.5H248.475V236.873H248.387L244.828 239.198V237.047L248.54 234.621H250.727ZM259.699 234.418C260.363 234.422 261.017 234.543 261.661 234.781C262.305 235.018 262.886 235.406 263.405 235.943C263.928 236.481 264.344 237.207 264.654 238.123C264.969 239.033 265.129 240.167 265.134 241.523C265.134 242.826 265.003 243.986 264.741 245.003C264.48 246.015 264.104 246.87 263.615 247.567C263.131 248.265 262.542 248.795 261.85 249.159C261.157 249.522 260.377 249.703 259.51 249.703C258.624 249.703 257.837 249.529 257.149 249.18C256.461 248.832 255.902 248.35 255.471 247.735C255.04 247.115 254.771 246.403 254.665 245.599H256.88C257.026 246.238 257.321 246.756 257.767 247.153C258.217 247.546 258.798 247.742 259.51 247.742C260.6 247.742 261.45 247.267 262.061 246.318C262.671 245.364 262.978 244.032 262.983 242.322H262.867C262.615 242.739 262.3 243.097 261.922 243.397C261.55 243.698 261.131 243.93 260.666 244.095C260.201 244.259 259.704 244.342 259.176 244.342C258.319 244.342 257.539 244.131 256.837 243.71C256.135 243.288 255.575 242.709 255.159 241.973C254.742 241.237 254.534 240.397 254.534 239.452C254.534 238.513 254.747 237.66 255.173 236.895C255.604 236.13 256.205 235.524 256.975 235.079C257.75 234.628 258.658 234.408 259.699 234.418ZM259.707 236.306C259.14 236.306 258.629 236.447 258.174 236.728C257.723 237.004 257.367 237.379 257.106 237.854C256.844 238.324 256.713 238.847 256.713 239.423C256.713 240 256.839 240.523 257.091 240.992C257.348 241.457 257.697 241.828 258.137 242.104C258.583 242.375 259.091 242.511 259.663 242.511C260.089 242.511 260.486 242.429 260.854 242.264C261.223 242.099 261.545 241.872 261.821 241.581C262.097 241.286 262.312 240.951 262.467 240.578C262.622 240.205 262.7 239.813 262.7 239.401C262.7 238.854 262.569 238.346 262.308 237.876C262.051 237.406 261.697 237.028 261.247 236.742C260.796 236.452 260.283 236.306 259.707 236.306Z" fill="black"/>
<path d="M283.038 249.5V247.873L288.072 242.656C288.61 242.09 289.053 241.593 289.402 241.167C289.755 240.736 290.019 240.327 290.194 239.939C290.368 239.552 290.455 239.14 290.455 238.704C290.455 238.21 290.339 237.784 290.107 237.425C289.874 237.062 289.557 236.784 289.155 236.59C288.753 236.391 288.3 236.292 287.796 236.292C287.263 236.292 286.798 236.401 286.401 236.619C286.004 236.837 285.699 237.144 285.486 237.542C285.273 237.939 285.166 238.404 285.166 238.936H283.023C283.023 238.031 283.231 237.239 283.648 236.561C284.064 235.883 284.636 235.357 285.362 234.984C286.089 234.606 286.915 234.418 287.84 234.418C288.775 234.418 289.598 234.604 290.31 234.977C291.027 235.345 291.586 235.849 291.988 236.488C292.39 237.123 292.591 237.839 292.591 238.639C292.591 239.191 292.487 239.731 292.279 240.259C292.075 240.787 291.719 241.375 291.211 242.024C290.702 242.668 289.995 243.451 289.089 244.371L286.133 247.466V247.575H292.831V249.5H283.038ZM300.765 249.747C299.617 249.742 298.636 249.439 297.822 248.839C297.008 248.238 296.386 247.364 295.955 246.216C295.524 245.068 295.308 243.685 295.308 242.068C295.308 240.455 295.524 239.077 295.955 237.934C296.391 236.791 297.016 235.919 297.829 235.318C298.648 234.718 299.626 234.418 300.765 234.418C301.903 234.418 302.879 234.72 303.692 235.326C304.506 235.926 305.129 236.798 305.56 237.941C305.995 239.079 306.213 240.455 306.213 242.068C306.213 243.69 305.998 245.076 305.567 246.223C305.136 247.366 304.513 248.241 303.7 248.846C302.886 249.447 301.908 249.747 300.765 249.747ZM300.765 247.807C301.772 247.807 302.559 247.316 303.126 246.332C303.697 245.349 303.983 243.928 303.983 242.068C303.983 240.833 303.852 239.789 303.591 238.936C303.334 238.079 302.963 237.43 302.479 236.989C302 236.544 301.428 236.321 300.765 236.321C299.762 236.321 298.975 236.815 298.403 237.803C297.832 238.791 297.544 240.213 297.539 242.068C297.539 243.308 297.667 244.356 297.924 245.214C298.185 246.066 298.556 246.713 299.035 247.153C299.515 247.589 300.091 247.807 300.765 247.807Z" fill="black"/>
</g>
<g clip-path="url(#clip3_286_624)">
<path d="M47.8399 299.68V298.053L52.8746 292.836C53.4123 292.27 53.8554 291.773 54.2042 291.347C54.5577 290.916 54.8217 290.507 54.9961 290.119C55.1704 289.732 55.2576 289.32 55.2576 288.884C55.2576 288.39 55.1414 287.964 54.9089 287.605C54.6764 287.242 54.3592 286.964 53.9572 286.77C53.5551 286.571 53.1023 286.472 52.5986 286.472C52.0658 286.472 51.6008 286.581 51.2037 286.799C50.8065 287.017 50.5014 287.324 50.2882 287.722C50.0751 288.119 49.9686 288.584 49.9686 289.116H47.8253C47.8253 288.211 48.0336 287.419 48.4502 286.741C48.8667 286.063 49.4382 285.537 50.1647 285.164C50.8913 284.786 51.7171 284.598 52.6422 284.598C53.5769 284.598 54.4003 284.784 55.1123 285.157C55.8291 285.525 56.3886 286.029 56.7906 286.668C57.1926 287.303 57.3936 288.019 57.3936 288.819C57.3936 289.371 57.2894 289.911 57.0812 290.439C56.8778 290.967 56.5218 291.555 56.0132 292.204C55.5046 292.848 54.7975 293.631 53.8918 294.551L50.9348 297.646V297.755H57.6333V299.68H47.8399ZM66.0319 284.801V299.68H63.7797V287.053H63.6925L60.1326 289.378V287.228L63.8451 284.801H66.0319Z" fill="black"/>
<path d="M85.8955 299.68V298.053L90.9303 292.836C91.4679 292.27 91.9111 291.773 92.2598 291.347C92.6134 290.916 92.8773 290.507 93.0517 290.119C93.2261 289.732 93.3133 289.32 93.3133 288.884C93.3133 288.39 93.197 287.964 92.9645 287.605C92.732 287.242 92.4148 286.964 92.0128 286.77C91.6108 286.571 91.1579 286.472 90.6542 286.472C90.1214 286.472 89.6565 286.581 89.2593 286.799C88.8621 287.017 88.557 287.324 88.3439 287.722C88.1308 288.119 88.0242 288.584 88.0242 289.116H85.881C85.881 288.211 86.0893 287.419 86.5058 286.741C86.9223 286.063 87.4939 285.537 88.2204 285.164C88.9469 284.786 89.7727 284.598 90.6978 284.598C91.6326 284.598 92.456 284.784 93.168 285.157C93.8848 285.525 94.4442 286.029 94.8462 286.668C95.2482 287.303 95.4492 288.019 95.4492 288.819C95.4492 289.371 95.3451 289.911 95.1368 290.439C94.9334 290.967 94.5774 291.555 94.0688 292.204C93.5603 292.848 92.8531 293.631 91.9474 294.551L88.9905 297.646V297.755H95.689V299.68H85.8955ZM98.4425 299.68V298.053L103.477 292.836C104.015 292.27 104.458 291.773 104.807 291.347C105.16 290.916 105.424 290.507 105.599 290.119C105.773 289.732 105.86 289.32 105.86 288.884C105.86 288.39 105.744 287.964 105.511 287.605C105.279 287.242 104.962 286.964 104.56 286.77C104.158 286.571 103.705 286.472 103.201 286.472C102.668 286.472 102.203 286.581 101.806 286.799C101.409 287.017 101.104 287.324 100.891 287.722C100.678 288.119 100.571 288.584 100.571 289.116H98.4279C98.4279 288.211 98.6362 287.419 99.0527 286.741C99.4693 286.063 100.041 285.537 100.767 285.164C101.494 284.786 102.32 284.598 103.245 284.598C104.18 284.598 105.003 284.784 105.715 285.157C106.432 285.525 106.991 286.029 107.393 286.668C107.795 287.303 107.996 288.019 107.996 288.819C107.996 289.371 107.892 289.911 107.684 290.439C107.48 290.967 107.124 291.555 106.616 292.204C106.107 292.848 105.4 293.631 104.494 294.551L101.537 297.646V297.755H108.236V299.68H98.4425Z" fill="black"/>
<path d="M125.07 299.68V298.053L130.105 292.836C130.643 292.27 131.086 291.773 131.435 291.347C131.788 290.916 132.052 290.507 132.227 290.119C132.401 289.732 132.488 289.32 132.488 288.884C132.488 288.39 132.372 287.964 132.139 287.605C131.907 287.242 131.59 286.964 131.188 286.77C130.786 286.571 130.333 286.472 129.829 286.472C129.296 286.472 128.831 286.581 128.434 286.799C128.037 287.017 127.732 287.324 127.519 287.722C127.306 288.119 127.199 288.584 127.199 289.116H125.056C125.056 288.211 125.264 287.419 125.681 286.741C126.097 286.063 126.669 285.537 127.395 285.164C128.122 284.786 128.948 284.598 129.873 284.598C130.808 284.598 131.631 284.784 132.343 285.157C133.06 285.525 133.619 286.029 134.021 286.668C134.423 287.303 134.624 288.019 134.624 288.819C134.624 289.371 134.52 289.911 134.312 290.439C134.108 290.967 133.752 291.555 133.244 292.204C132.735 292.848 132.028 293.631 131.122 294.551L128.165 297.646V297.755H134.864V299.68H125.07ZM142.797 299.883C141.8 299.883 140.909 299.712 140.124 299.368C139.344 299.024 138.727 298.547 138.271 297.936C137.821 297.321 137.579 296.609 137.545 295.8H139.826C139.855 296.241 140.003 296.624 140.269 296.948C140.54 297.268 140.894 297.515 141.33 297.689C141.766 297.864 142.25 297.951 142.783 297.951C143.369 297.951 143.887 297.849 144.338 297.646C144.793 297.442 145.149 297.159 145.406 296.796C145.662 296.428 145.791 296.004 145.791 295.524C145.791 295.025 145.662 294.587 145.406 294.209C145.154 293.827 144.783 293.526 144.294 293.308C143.81 293.091 143.224 292.982 142.536 292.982H141.279V291.151H142.536C143.088 291.151 143.572 291.051 143.989 290.853C144.41 290.654 144.74 290.378 144.977 290.025C145.214 289.666 145.333 289.247 145.333 288.768C145.333 288.308 145.229 287.908 145.021 287.569C144.817 287.225 144.527 286.956 144.149 286.763C143.776 286.569 143.335 286.472 142.827 286.472C142.342 286.472 141.889 286.562 141.468 286.741C141.051 286.915 140.712 287.167 140.451 287.496C140.189 287.821 140.049 288.211 140.029 288.666H137.857C137.881 287.862 138.119 287.155 138.569 286.545C139.024 285.934 139.625 285.457 140.371 285.113C141.117 284.769 141.945 284.598 142.856 284.598C143.81 284.598 144.633 284.784 145.326 285.157C146.023 285.525 146.561 286.017 146.939 286.632C147.321 287.247 147.51 287.92 147.505 288.652C147.51 289.485 147.278 290.192 146.808 290.773C146.343 291.354 145.723 291.744 144.948 291.943V292.059C145.936 292.209 146.701 292.601 147.244 293.236C147.791 293.87 148.062 294.657 148.057 295.597C148.062 296.416 147.835 297.149 147.375 297.798C146.919 298.447 146.297 298.958 145.507 299.331C144.718 299.699 143.815 299.883 142.797 299.883Z" fill="black"/>
<path d="M164.625 299.68V298.053L169.659 292.836C170.197 292.27 170.64 291.773 170.989 291.347C171.342 290.916 171.606 290.507 171.781 290.119C171.955 289.732 172.042 289.32 172.042 288.884C172.042 288.39 171.926 287.964 171.694 287.605C171.461 287.242 171.144 286.964 170.742 286.77C170.34 286.571 169.887 286.472 169.383 286.472C168.85 286.472 168.385 286.581 167.988 286.799C167.591 287.017 167.286 287.324 167.073 287.722C166.86 288.119 166.753 288.584 166.753 289.116H164.61C164.61 288.211 164.818 287.419 165.235 286.741C165.651 286.063 166.223 285.537 166.949 285.164C167.676 284.786 168.502 284.598 169.427 284.598C170.362 284.598 171.185 284.784 171.897 285.157C172.614 285.525 173.173 286.029 173.575 286.668C173.977 287.303 174.178 288.019 174.178 288.819C174.178 289.371 174.074 289.911 173.866 290.439C173.662 290.967 173.306 291.555 172.798 292.204C172.289 292.848 171.582 293.631 170.676 294.551L167.72 297.646V297.755H174.418V299.68H164.625ZM176.539 296.774V294.958L182.969 284.801H184.4V287.475H183.492L178.893 294.754V294.871H187.706V296.774H176.539ZM183.594 299.68V296.222L183.608 295.394V284.801H185.737V299.68H183.594Z" fill="black"/>
<path d="M204.308 299.68V298.053L209.343 292.836C209.881 292.27 210.324 291.773 210.673 291.347C211.026 290.916 211.29 290.507 211.465 290.119C211.639 289.732 211.726 289.32 211.726 288.884C211.726 288.39 211.61 287.964 211.378 287.605C211.145 287.242 210.828 286.964 210.426 286.77C210.024 286.571 209.571 286.472 209.067 286.472C208.534 286.472 208.069 286.581 207.672 286.799C207.275 287.017 206.97 287.324 206.757 287.722C206.544 288.119 206.437 288.584 206.437 289.116H204.294C204.294 288.211 204.502 287.419 204.919 286.741C205.335 286.063 205.907 285.537 206.633 285.164C207.36 284.786 208.186 284.598 209.111 284.598C210.046 284.598 210.869 284.784 211.581 285.157C212.298 285.525 212.857 286.029 213.259 286.668C213.661 287.303 213.862 288.019 213.862 288.819C213.862 289.371 213.758 289.911 213.55 290.439C213.346 290.967 212.99 291.555 212.482 292.204C211.973 292.848 211.266 293.631 210.36 294.551L207.403 297.646V297.755H214.102V299.68H204.308ZM221.767 299.883C220.856 299.883 220.038 299.709 219.311 299.36C218.589 299.007 218.013 298.522 217.582 297.907C217.151 297.292 216.921 296.59 216.892 295.8H219.071C219.125 296.44 219.408 296.965 219.921 297.377C220.435 297.789 221.05 297.995 221.767 297.995C222.338 297.995 222.844 297.864 223.285 297.602C223.731 297.336 224.079 296.97 224.331 296.505C224.588 296.04 224.716 295.51 224.716 294.914C224.716 294.309 224.586 293.769 224.324 293.294C224.063 292.819 223.702 292.446 223.242 292.175C222.786 291.904 222.263 291.766 221.672 291.761C221.222 291.761 220.769 291.839 220.314 291.994C219.858 292.148 219.49 292.352 219.209 292.604L217.153 292.299L217.989 284.801H226.169V286.726H219.856L219.384 290.889H219.471C219.762 290.608 220.147 290.373 220.626 290.184C221.11 289.996 221.629 289.901 222.181 289.901C223.087 289.901 223.893 290.117 224.6 290.548C225.312 290.979 225.872 291.567 226.278 292.313C226.69 293.054 226.893 293.907 226.889 294.871C226.893 295.834 226.676 296.694 226.235 297.45C225.799 298.205 225.193 298.801 224.418 299.237C223.648 299.668 222.764 299.883 221.767 299.883Z" fill="black"/>
<path d="M243.643 299.68V298.053L248.678 292.836C249.216 292.27 249.659 291.773 250.008 291.347C250.361 290.916 250.625 290.507 250.799 290.119C250.974 289.732 251.061 289.32 251.061 288.884C251.061 288.39 250.945 287.964 250.712 287.605C250.48 287.242 250.163 286.964 249.761 286.77C249.359 286.571 248.906 286.472 248.402 286.472C247.869 286.472 247.404 286.581 247.007 286.799C246.61 287.017 246.305 287.324 246.092 287.722C245.879 288.119 245.772 288.584 245.772 289.116H243.629C243.629 288.211 243.837 287.419 244.254 286.741C244.67 286.063 245.242 285.537 245.968 285.164C246.695 284.786 247.52 284.598 248.446 284.598C249.38 284.598 250.204 284.784 250.916 285.157C251.633 285.525 252.192 286.029 252.594 286.668C252.996 287.303 253.197 288.019 253.197 288.819C253.197 289.371 253.093 289.911 252.885 290.439C252.681 290.967 252.325 291.555 251.817 292.204C251.308 292.848 250.601 293.631 249.695 294.551L246.738 297.646V297.755H253.437V299.68H243.643ZM261.385 299.883C260.721 299.874 260.067 299.753 259.423 299.52C258.784 299.288 258.203 298.9 257.68 298.358C257.157 297.815 256.738 297.086 256.423 296.171C256.113 295.256 255.958 294.113 255.958 292.742C255.958 291.444 256.086 290.291 256.343 289.284C256.604 288.276 256.98 287.426 257.469 286.734C257.958 286.036 258.549 285.506 259.242 285.142C259.934 284.779 260.712 284.598 261.574 284.598C262.46 284.598 263.247 284.772 263.935 285.121C264.623 285.469 265.18 285.951 265.606 286.566C266.037 287.182 266.311 287.881 266.427 288.666H264.211C264.061 288.046 263.763 287.54 263.317 287.148C262.872 286.755 262.291 286.559 261.574 286.559C260.484 286.559 259.634 287.034 259.024 287.983C258.418 288.932 258.113 290.252 258.108 291.943H258.217C258.474 291.521 258.789 291.163 259.162 290.867C259.539 290.567 259.961 290.337 260.426 290.177C260.896 290.013 261.39 289.93 261.908 289.93C262.77 289.93 263.55 290.141 264.247 290.562C264.95 290.979 265.509 291.555 265.926 292.291C266.342 293.028 266.55 293.87 266.55 294.82C266.55 295.769 266.335 296.629 265.904 297.399C265.478 298.169 264.877 298.779 264.102 299.23C263.327 299.675 262.421 299.893 261.385 299.883ZM261.378 297.995C261.949 297.995 262.46 297.854 262.911 297.573C263.361 297.292 263.717 296.914 263.979 296.44C264.24 295.965 264.371 295.435 264.371 294.849C264.371 294.277 264.242 293.757 263.986 293.287C263.734 292.817 263.385 292.444 262.94 292.168C262.499 291.892 261.995 291.754 261.428 291.754C260.997 291.754 260.598 291.836 260.23 292.001C259.866 292.165 259.547 292.393 259.271 292.684C258.995 292.974 258.777 293.308 258.617 293.686C258.462 294.059 258.384 294.454 258.384 294.871C258.384 295.428 258.513 295.943 258.769 296.418C259.031 296.893 259.387 297.275 259.837 297.566C260.293 297.852 260.806 297.995 261.378 297.995Z" fill="black"/>
<path d="M283.717 299.68V298.053L288.752 292.836C289.289 292.27 289.732 291.773 290.081 291.347C290.435 290.916 290.699 290.507 290.873 290.119C291.047 289.732 291.135 289.32 291.135 288.884C291.135 288.39 291.018 287.964 290.786 287.605C290.553 287.242 290.236 286.964 289.834 286.77C289.432 286.571 288.979 286.472 288.476 286.472C287.943 286.472 287.478 286.581 287.081 286.799C286.683 287.017 286.378 287.324 286.165 287.722C285.952 288.119 285.846 288.584 285.846 289.116H283.702C283.702 288.211 283.911 287.419 284.327 286.741C284.744 286.063 285.315 285.537 286.042 285.164C286.768 284.786 287.594 284.598 288.519 284.598C289.454 284.598 290.277 284.784 290.989 285.157C291.706 285.525 292.266 286.029 292.668 286.668C293.07 287.303 293.271 288.019 293.271 288.819C293.271 289.371 293.166 289.911 292.958 290.439C292.755 290.967 292.399 291.555 291.89 292.204C291.382 292.848 290.674 293.631 289.769 294.551L286.812 297.646V297.755H293.51V299.68H283.717ZM296.765 299.68L303.26 286.835V286.726H295.748V284.801H305.585V286.792L299.112 299.68H296.765Z" fill="black"/>
</g>
<g clip-path="url(#clip4_286_624)">
<path d="M46.2116 349.86V348.233L51.2463 343.016C51.784 342.45 52.2271 341.953 52.5759 341.527C52.9294 341.096 53.1934 340.686 53.3678 340.299C53.5421 339.912 53.6293 339.5 53.6293 339.064C53.6293 338.57 53.5131 338.144 53.2806 337.785C53.0481 337.422 52.7309 337.144 52.3288 336.95C51.9268 336.751 51.474 336.652 50.9703 336.652C50.4375 336.652 49.9725 336.761 49.5753 336.979C49.1782 337.197 48.873 337.504 48.6599 337.902C48.4468 338.299 48.3403 338.764 48.3403 339.296H46.197C46.197 338.391 46.4053 337.599 46.8218 336.921C47.2384 336.243 47.8099 335.717 48.5364 335.344C49.2629 334.966 50.0888 334.777 51.0139 334.777C51.9486 334.777 52.772 334.964 53.484 335.337C54.2008 335.705 54.7603 336.209 55.1623 336.848C55.5643 337.483 55.7653 338.199 55.7653 338.999C55.7653 339.551 55.6611 340.091 55.4529 340.619C55.2494 341.147 54.8935 341.735 54.3849 342.384C53.8763 343.028 53.1692 343.811 52.2635 344.731L49.3065 347.826V347.935H56.005V349.86H46.2116ZM63.786 350.063C62.7447 350.063 61.8244 349.884 61.0253 349.526C60.2309 349.167 59.6086 348.673 59.1581 348.044C58.7077 347.414 58.4849 346.697 58.4897 345.893C58.4849 345.264 58.6132 344.685 58.8748 344.157C59.1412 343.624 59.502 343.181 59.9573 342.827C60.4126 342.469 60.9211 342.241 61.483 342.144V342.057C60.7419 341.878 60.1486 341.481 59.703 340.866C59.2574 340.251 59.037 339.543 59.0419 338.744C59.037 337.984 59.238 337.306 59.6449 336.71C60.0566 336.109 60.6208 335.637 61.3377 335.293C62.0545 334.949 62.8706 334.777 63.786 334.777C64.6918 334.777 65.5006 334.952 66.2126 335.301C66.9294 335.644 67.4937 336.117 67.9054 336.717C68.3171 337.313 68.5253 337.989 68.5302 338.744C68.5253 339.543 68.2977 340.251 67.8473 340.866C67.3968 341.481 66.8108 341.878 66.0891 342.057V342.144C66.6461 342.241 67.1474 342.469 67.593 342.827C68.0434 343.181 68.4018 343.624 68.6682 344.157C68.9395 344.685 69.0775 345.264 69.0823 345.893C69.0775 346.697 68.8499 347.414 68.3994 348.044C67.949 348.673 67.3242 349.167 66.525 349.526C65.7307 349.884 64.8177 350.063 63.786 350.063ZM63.786 348.225C64.4011 348.225 64.9339 348.124 65.3844 347.92C65.8348 347.712 66.1835 347.424 66.4305 347.056C66.6776 346.683 66.8035 346.247 66.8083 345.748C66.8035 345.23 66.6679 344.772 66.4015 344.375C66.1399 343.978 65.7839 343.665 65.3335 343.438C64.8831 343.21 64.3672 343.096 63.786 343.096C63.2 343.096 62.6793 343.21 62.224 343.438C61.7687 343.665 61.4103 343.978 61.1488 344.375C60.8872 344.772 60.7589 345.23 60.7637 345.748C60.7589 346.247 60.8775 346.683 61.1197 347.056C61.3667 347.424 61.7179 347.712 62.1732 347.92C62.6284 348.124 63.1661 348.225 63.786 348.225ZM63.786 341.302C64.2801 341.302 64.7184 341.202 65.101 341.004C65.4837 340.805 65.7839 340.529 66.0019 340.176C66.2247 339.822 66.3385 339.408 66.3434 338.933C66.3385 338.468 66.2271 338.061 66.0092 337.713C65.7961 337.364 65.4982 337.095 65.1156 336.906C64.7329 336.712 64.2897 336.616 63.786 336.616C63.2726 336.616 62.8222 336.712 62.4347 336.906C62.0521 337.095 61.7542 337.364 61.5411 337.713C61.328 338.061 61.2238 338.468 61.2287 338.933C61.2238 339.408 61.3304 339.822 61.5484 340.176C61.7663 340.529 62.0666 340.805 62.4492 341.004C62.8367 341.202 63.2823 341.302 63.786 341.302Z" fill="black"/>
<path d="M85.6658 349.86V348.233L90.7005 343.016C91.2381 342.45 91.6813 341.953 92.03 341.527C92.3836 341.096 92.6476 340.686 92.822 340.299C92.9963 339.912 93.0835 339.5 93.0835 339.064C93.0835 338.57 92.9673 338.144 92.7348 337.785C92.5023 337.422 92.185 337.144 91.783 336.95C91.381 336.751 90.9282 336.652 90.4244 336.652C89.8917 336.652 89.4267 336.761 89.0295 336.979C88.6324 337.197 88.3272 337.504 88.1141 337.902C87.901 338.299 87.7945 338.764 87.7945 339.296H85.6512C85.6512 338.391 85.8595 337.599 86.276 336.921C86.6926 336.243 87.2641 335.717 87.9906 335.344C88.7171 334.966 89.5429 334.777 90.468 334.777C91.4028 334.777 92.2262 334.964 92.9382 335.337C93.655 335.705 94.2144 336.209 94.6164 336.848C95.0185 337.483 95.2195 338.199 95.2195 338.999C95.2195 339.551 95.1153 340.091 94.9071 340.619C94.7036 341.147 94.3476 341.735 93.8391 342.384C93.3305 343.028 92.6234 343.811 91.7176 344.731L88.7607 347.826V347.935H95.4592V349.86H85.6658ZM103.16 334.777C103.824 334.782 104.478 334.903 105.122 335.141C105.766 335.378 106.347 335.766 106.866 336.303C107.389 336.841 107.805 337.567 108.115 338.483C108.43 339.393 108.59 340.527 108.595 341.883C108.595 343.186 108.464 344.346 108.202 345.363C107.941 346.375 107.565 347.23 107.076 347.927C106.592 348.625 106.003 349.155 105.311 349.519C104.618 349.882 103.838 350.063 102.971 350.063C102.085 350.063 101.298 349.889 100.61 349.54C99.9224 349.192 99.363 348.71 98.932 348.095C98.5009 347.475 98.2321 346.763 98.1255 345.959H100.341C100.487 346.598 100.782 347.116 101.228 347.513C101.678 347.906 102.259 348.102 102.971 348.102C104.061 348.102 104.911 347.627 105.521 346.678C106.132 345.724 106.439 344.392 106.444 342.682H106.328C106.076 343.099 105.761 343.457 105.383 343.757C105.01 344.058 104.592 344.29 104.127 344.455C103.662 344.619 103.165 344.702 102.637 344.702C101.78 344.702 101 344.491 100.298 344.07C99.5955 343.648 99.0361 343.069 98.6196 342.333C98.203 341.597 97.9948 340.757 97.9948 339.812C97.9948 338.873 98.2079 338.02 98.6341 337.255C99.0652 336.49 99.6657 335.884 100.436 335.439C101.211 334.988 102.119 334.768 103.16 334.777ZM103.168 336.666C102.601 336.666 102.09 336.807 101.635 337.088C101.184 337.364 100.828 337.739 100.567 338.214C100.305 338.684 100.174 339.207 100.174 339.783C100.174 340.36 100.3 340.883 100.552 341.352C100.809 341.817 101.158 342.188 101.598 342.464C102.044 342.735 102.552 342.871 103.124 342.871C103.55 342.871 103.947 342.789 104.315 342.624C104.684 342.459 105.006 342.232 105.282 341.941C105.558 341.645 105.773 341.311 105.928 340.938C106.083 340.565 106.161 340.173 106.161 339.761C106.161 339.214 106.03 338.706 105.768 338.236C105.512 337.766 105.158 337.388 104.708 337.102C104.257 336.812 103.744 336.666 103.168 336.666Z" fill="black"/>
<path d="M129.921 350.063C128.923 350.063 128.032 349.891 127.247 349.548C126.468 349.204 125.85 348.727 125.395 348.116C124.944 347.501 124.702 346.789 124.668 345.98H126.949C126.978 346.421 127.126 346.804 127.393 347.128C127.664 347.448 128.017 347.695 128.453 347.869C128.889 348.044 129.374 348.131 129.906 348.131C130.492 348.131 131.011 348.029 131.461 347.826C131.916 347.622 132.272 347.339 132.529 346.976C132.786 346.608 132.914 346.184 132.914 345.704C132.914 345.205 132.786 344.767 132.529 344.389C132.277 344.007 131.907 343.706 131.418 343.488C130.933 343.27 130.347 343.161 129.659 343.161H128.402V341.331H129.659C130.211 341.331 130.696 341.231 131.112 341.033C131.534 340.834 131.863 340.558 132.1 340.205C132.338 339.846 132.456 339.427 132.456 338.948C132.456 338.488 132.352 338.088 132.144 337.749C131.941 337.405 131.65 337.136 131.272 336.943C130.899 336.749 130.459 336.652 129.95 336.652C129.466 336.652 129.013 336.742 128.591 336.921C128.175 337.095 127.836 337.347 127.574 337.676C127.313 338.001 127.172 338.391 127.153 338.846H124.981C125.005 338.042 125.242 337.335 125.693 336.725C126.148 336.114 126.748 335.637 127.494 335.293C128.24 334.949 129.068 334.777 129.979 334.777C130.933 334.777 131.757 334.964 132.449 335.337C133.147 335.705 133.684 336.197 134.062 336.812C134.445 337.427 134.634 338.1 134.629 338.831C134.634 339.665 134.401 340.372 133.931 340.953C133.466 341.534 132.846 341.924 132.071 342.123V342.239C133.059 342.389 133.825 342.781 134.367 343.416C134.914 344.05 135.186 344.837 135.181 345.777C135.186 346.596 134.958 347.329 134.498 347.978C134.043 348.627 133.42 349.138 132.631 349.511C131.841 349.879 130.938 350.063 129.921 350.063ZM143.107 350.107C141.959 350.102 140.978 349.799 140.165 349.199C139.351 348.598 138.729 347.724 138.298 346.576C137.867 345.428 137.651 344.045 137.651 342.428C137.651 340.815 137.867 339.437 138.298 338.294C138.734 337.151 139.358 336.279 140.172 335.678C140.991 335.078 141.969 334.777 143.107 334.777C144.245 334.777 145.221 335.08 146.035 335.686C146.849 336.286 147.471 337.158 147.902 338.301C148.338 339.439 148.556 340.815 148.556 342.428C148.556 344.05 148.341 345.435 147.909 346.583C147.478 347.726 146.856 348.601 146.042 349.206C145.229 349.807 144.25 350.107 143.107 350.107ZM143.107 348.167C144.115 348.167 144.902 347.676 145.468 346.692C146.04 345.709 146.326 344.288 146.326 342.428C146.326 341.193 146.195 340.149 145.933 339.296C145.677 338.439 145.306 337.79 144.822 337.349C144.342 336.904 143.771 336.681 143.107 336.681C142.105 336.681 141.318 337.175 140.746 338.163C140.174 339.151 139.886 340.573 139.881 342.428C139.881 343.668 140.01 344.716 140.266 345.574C140.528 346.426 140.899 347.073 141.378 347.513C141.858 347.949 142.434 348.167 143.107 348.167Z" fill="black"/>
<path d="M178.241 334.981V349.86H175.989V337.233H175.902L172.342 339.558V337.407L176.054 334.981H178.241Z" fill="#9C9D9F"/>
<path d="M210.652 349.86V348.233L215.687 343.016C216.224 342.45 216.667 341.953 217.016 341.527C217.37 341.096 217.634 340.686 217.808 340.299C217.982 339.912 218.07 339.5 218.07 339.064C218.07 338.57 217.953 338.144 217.721 337.785C217.488 337.422 217.171 337.144 216.769 336.95C216.367 336.751 215.914 336.652 215.411 336.652C214.878 336.652 214.413 336.761 214.016 336.979C213.619 337.197 213.313 337.504 213.1 337.902C212.887 338.299 212.781 338.764 212.781 339.296H210.637C210.637 338.391 210.846 337.599 211.262 336.921C211.679 336.243 212.25 335.717 212.977 335.344C213.703 334.966 214.529 334.777 215.454 334.777C216.389 334.777 217.212 334.964 217.924 335.337C218.641 335.705 219.201 336.209 219.603 336.848C220.005 337.483 220.206 338.199 220.206 338.999C220.206 339.551 220.101 340.091 219.893 340.619C219.69 341.147 219.334 341.735 218.825 342.384C218.317 343.028 217.61 343.811 216.704 344.731L213.747 347.826V347.935H220.445V349.86H210.652Z" fill="#9C9D9F"/>
<path d="M255.007 350.063C254.009 350.063 253.118 349.891 252.333 349.548C251.554 349.204 250.936 348.727 250.481 348.116C250.03 347.501 249.788 346.789 249.754 345.98H252.035C252.065 346.421 252.212 346.804 252.479 347.128C252.75 347.448 253.103 347.695 253.539 347.869C253.975 348.044 254.46 348.131 254.992 348.131C255.578 348.131 256.097 348.029 256.547 347.826C257.002 347.622 257.358 347.339 257.615 346.976C257.872 346.608 258 346.184 258 345.704C258 345.205 257.872 344.767 257.615 344.389C257.363 344.007 256.993 343.706 256.504 343.488C256.019 343.27 255.433 343.161 254.745 343.161H253.489V341.331H254.745C255.298 341.331 255.782 341.231 256.198 341.033C256.62 340.834 256.949 340.558 257.186 340.205C257.424 339.846 257.542 339.427 257.542 338.948C257.542 338.488 257.438 338.088 257.23 337.749C257.027 337.405 256.736 337.136 256.358 336.943C255.985 336.749 255.545 336.652 255.036 336.652C254.552 336.652 254.099 336.742 253.677 336.921C253.261 337.095 252.922 337.347 252.66 337.676C252.399 338.001 252.258 338.391 252.239 338.846H250.067C250.091 338.042 250.328 337.335 250.779 336.725C251.234 336.114 251.834 335.637 252.58 335.293C253.326 334.949 254.154 334.777 255.065 334.777C256.019 334.777 256.843 334.964 257.535 335.337C258.233 335.705 258.77 336.197 259.148 336.812C259.531 337.427 259.72 338.1 259.715 338.831C259.72 339.665 259.487 340.372 259.017 340.953C258.552 341.534 257.932 341.924 257.157 342.123V342.239C258.145 342.389 258.911 342.781 259.453 343.416C260.001 344.05 260.272 344.837 260.267 345.777C260.272 346.596 260.044 347.329 259.584 347.978C259.129 348.627 258.506 349.138 257.717 349.511C256.927 349.879 256.024 350.063 255.007 350.063Z" fill="#9C9D9F"/>
<path d="M288.909 346.954V345.138L295.338 334.981H296.77V337.654H295.861L291.263 344.934V345.05H300.075V346.954H288.909ZM295.963 349.86V346.402L295.978 345.574V334.981H298.106V349.86H295.963Z" fill="#9C9D9F"/>
</g>
<path d="M28.704 30.848C29.92 30.848 30.9707 31.0773 31.856 31.536C32.752 31.984 33.4347 32.6293 33.904 33.472C34.384 34.3147 34.624 35.3067 34.624 36.448C34.624 37.5893 34.384 38.5813 33.904 39.424C33.4347 40.256 32.752 40.896 31.856 41.344C30.9707 41.7813 29.92 42 28.704 42H25.232V30.848H28.704ZM28.704 40.8C30.144 40.8 31.2427 40.4213 32 39.664C32.7573 38.896 33.136 37.824 33.136 36.448C33.136 35.0613 32.752 33.9787 31.984 33.2C31.2267 32.4213 30.1333 32.032 28.704 32.032H26.688V40.8H28.704ZM36.0005 37.584C36.0005 36.688 36.1818 35.904 36.5445 35.232C36.9072 34.5493 37.4032 34.0213 38.0325 33.648C38.6725 33.2747 39.3818 33.088 40.1605 33.088C40.9285 33.088 41.5952 33.2533 42.1605 33.584C42.7258 33.9147 43.1472 34.3307 43.4245 34.832V33.232H44.8965V42H43.4245V40.368C43.1365 40.88 42.7045 41.3067 42.1285 41.648C41.5632 41.9787 40.9018 42.144 40.1445 42.144C39.3658 42.144 38.6618 41.952 38.0325 41.568C37.4032 41.184 36.9072 40.6453 36.5445 39.952C36.1818 39.2587 36.0005 38.4693 36.0005 37.584ZM43.4245 37.6C43.4245 36.9387 43.2912 36.3627 43.0245 35.872C42.7578 35.3813 42.3952 35.008 41.9365 34.752C41.4885 34.4853 40.9925 34.352 40.4485 34.352C39.9045 34.352 39.4085 34.48 38.9605 34.736C38.5125 34.992 38.1552 35.3653 37.8885 35.856C37.6218 36.3467 37.4885 36.9227 37.4885 37.584C37.4885 38.256 37.6218 38.8427 37.8885 39.344C38.1552 39.8347 38.5125 40.2133 38.9605 40.48C39.4085 40.736 39.9045 40.864 40.4485 40.864C40.9925 40.864 41.4885 40.736 41.9365 40.48C42.3952 40.2133 42.7578 39.8347 43.0245 39.344C43.2912 38.8427 43.4245 38.2613 43.4245 37.6ZM49.133 34.432V39.6C49.133 40.0267 49.2237 40.3307 49.405 40.512C49.5863 40.6827 49.901 40.768 50.349 40.768H51.421V42H50.109C49.2983 42 48.6903 41.8133 48.285 41.44C47.8797 41.0667 47.677 40.4533 47.677 39.6V34.432H46.541V33.232H47.677V31.024H49.133V33.232H51.421V34.432H49.133ZM52.6411 37.584C52.6411 36.688 52.8225 35.904 53.1851 35.232C53.5478 34.5493 54.0438 34.0213 54.6731 33.648C55.3131 33.2747 56.0225 33.088 56.8011 33.088C57.5691 33.088 58.2358 33.2533 58.8011 33.584C59.3665 33.9147 59.7878 34.3307 60.0651 34.832V33.232H61.5371V42H60.0651V40.368C59.7771 40.88 59.3451 41.3067 58.7691 41.648C58.2038 41.9787 57.5425 42.144 56.7851 42.144C56.0065 42.144 55.3025 41.952 54.6731 41.568C54.0438 41.184 53.5478 40.6453 53.1851 39.952C52.8225 39.2587 52.6411 38.4693 52.6411 37.584ZM60.0651 37.6C60.0651 36.9387 59.9318 36.3627 59.6651 35.872C59.3985 35.3813 59.0358 35.008 58.5771 34.752C58.1291 34.4853 57.6331 34.352 57.0891 34.352C56.5451 34.352 56.0491 34.48 55.6011 34.736C55.1531 34.992 54.7958 35.3653 54.5291 35.856C54.2625 36.3467 54.1291 36.9227 54.1291 37.584C54.1291 38.256 54.2625 38.8427 54.5291 39.344C54.7958 39.8347 55.1531 40.2133 55.6011 40.48C56.0491 40.736 56.5451 40.864 57.0891 40.864C57.6331 40.864 58.1291 40.736 58.5771 40.48C59.0358 40.2133 59.3985 39.8347 59.6651 39.344C59.9318 38.8427 60.0651 38.2613 60.0651 37.6ZM67.7193 37.584C67.7193 36.688 67.9006 35.904 68.2633 35.232C68.6259 34.5493 69.1219 34.0213 69.7513 33.648C70.3913 33.2747 71.1059 33.088 71.8953 33.088C72.5779 33.088 73.2126 33.248 73.7993 33.568C74.3859 33.8773 74.8339 34.288 75.1433 34.8V30.16H76.6153V42H75.1433V40.352C74.8553 40.8747 74.4286 41.3067 73.8633 41.648C73.2979 41.9787 72.6366 42.144 71.8793 42.144C71.1006 42.144 70.3913 41.952 69.7513 41.568C69.1219 41.184 68.6259 40.6453 68.2633 39.952C67.9006 39.2587 67.7193 38.4693 67.7193 37.584ZM75.1433 37.6C75.1433 36.9387 75.0099 36.3627 74.7433 35.872C74.4766 35.3813 74.1139 35.008 73.6553 34.752C73.2073 34.4853 72.7113 34.352 72.1673 34.352C71.6233 34.352 71.1273 34.48 70.6793 34.736C70.2313 34.992 69.8739 35.3653 69.6073 35.856C69.3406 36.3467 69.2073 36.9227 69.2073 37.584C69.2073 38.256 69.3406 38.8427 69.6073 39.344C69.8739 39.8347 70.2313 40.2133 70.6793 40.48C71.1273 40.736 71.6233 40.864 72.1673 40.864C72.7113 40.864 73.2073 40.736 73.6553 40.48C74.1139 40.2133 74.4766 39.8347 74.7433 39.344C75.0099 38.8427 75.1433 38.2613 75.1433 37.6ZM87.0758 37.28C87.0758 37.5573 87.0598 37.8507 87.0278 38.16H80.0198C80.0731 39.024 80.3664 39.7013 80.8998 40.192C81.4438 40.672 82.0998 40.912 82.8678 40.912C83.4971 40.912 84.0198 40.768 84.4358 40.48C84.8624 40.1813 85.1611 39.7867 85.3318 39.296H86.8998C86.6651 40.1387 86.1958 40.8267 85.4918 41.36C84.7878 41.8827 83.9131 42.144 82.8678 42.144C82.0358 42.144 81.2891 41.9573 80.6278 41.584C79.9771 41.2107 79.4651 40.6827 79.0918 40C78.7184 39.3067 78.5318 38.5067 78.5318 37.6C78.5318 36.6933 78.7131 35.8987 79.0758 35.216C79.4384 34.5333 79.9451 34.0107 80.5958 33.648C81.2571 33.2747 82.0144 33.088 82.8678 33.088C83.6998 33.088 84.4358 33.2693 85.0758 33.632C85.7158 33.9947 86.2064 34.496 86.5478 35.136C86.8998 35.7653 87.0758 36.48 87.0758 37.28ZM85.5718 36.976C85.5718 36.4213 85.4491 35.9467 85.2038 35.552C84.9584 35.1467 84.6224 34.8427 84.1958 34.64C83.7798 34.4267 83.3158 34.32 82.8038 34.32C82.0678 34.32 81.4384 34.5547 80.9158 35.024C80.4038 35.4933 80.1104 36.144 80.0358 36.976H85.5718ZM102.031 42H100.575L94.7193 33.12V42H93.2633V30.832H94.7193L100.575 39.696V30.832H102.031V42ZM103.969 37.584C103.969 36.688 104.151 35.904 104.513 35.232C104.876 34.5493 105.372 34.0213 106.001 33.648C106.641 33.2747 107.351 33.088 108.129 33.088C108.897 33.088 109.564 33.2533 110.129 33.584C110.695 33.9147 111.116 34.3307 111.393 34.832V33.232H112.865V42H111.393V40.368C111.105 40.88 110.673 41.3067 110.097 41.648C109.532 41.9787 108.871 42.144 108.113 42.144C107.335 42.144 106.631 41.952 106.001 41.568C105.372 41.184 104.876 40.6453 104.513 39.952C104.151 39.2587 103.969 38.4693 103.969 37.584ZM111.393 37.6C111.393 36.9387 111.26 36.3627 110.993 35.872C110.727 35.3813 110.364 35.008 109.905 34.752C109.457 34.4853 108.961 34.352 108.417 34.352C107.873 34.352 107.377 34.48 106.929 34.736C106.481 34.992 106.124 35.3653 105.857 35.856C105.591 36.3467 105.457 36.9227 105.457 37.584C105.457 38.256 105.591 38.8427 105.857 39.344C106.124 39.8347 106.481 40.2133 106.929 40.48C107.377 40.736 107.873 40.864 108.417 40.864C108.961 40.864 109.457 40.736 109.905 40.48C110.364 40.2133 110.727 39.8347 110.993 39.344C111.26 38.8427 111.393 38.2613 111.393 37.6ZM118.43 42.144C117.758 42.144 117.155 42.032 116.622 41.808C116.088 41.5733 115.667 41.2533 115.358 40.848C115.048 40.432 114.878 39.9573 114.846 39.424H116.35C116.392 39.8613 116.595 40.2187 116.958 40.496C117.331 40.7733 117.816 40.912 118.414 40.912C118.968 40.912 119.406 40.7893 119.726 40.544C120.046 40.2987 120.206 39.9893 120.206 39.616C120.206 39.232 120.035 38.9493 119.694 38.768C119.352 38.576 118.824 38.3893 118.11 38.208C117.459 38.0373 116.926 37.8667 116.51 37.696C116.104 37.5147 115.752 37.2533 115.454 36.912C115.166 36.56 115.022 36.1013 115.022 35.536C115.022 35.088 115.155 34.6773 115.422 34.304C115.688 33.9307 116.067 33.6373 116.558 33.424C117.048 33.2 117.608 33.088 118.238 33.088C119.208 33.088 119.992 33.3333 120.59 33.824C121.187 34.3147 121.507 34.9867 121.55 35.84H120.094C120.062 35.3813 119.875 35.0133 119.534 34.736C119.203 34.4587 118.755 34.32 118.19 34.32C117.667 34.32 117.251 34.432 116.942 34.656C116.632 34.88 116.478 35.1733 116.478 35.536C116.478 35.824 116.568 36.064 116.75 36.256C116.942 36.4373 117.176 36.5867 117.454 36.704C117.742 36.8107 118.136 36.9333 118.638 37.072C119.267 37.2427 119.779 37.4133 120.174 37.584C120.568 37.744 120.904 37.9893 121.182 38.32C121.47 38.6507 121.619 39.0827 121.63 39.616C121.63 40.096 121.496 40.528 121.23 40.912C120.963 41.296 120.584 41.6 120.094 41.824C119.614 42.0373 119.059 42.144 118.43 42.144ZM123.141 37.6C123.141 36.6933 123.322 35.904 123.685 35.232C124.048 34.5493 124.549 34.0213 125.189 33.648C125.84 33.2747 126.581 33.088 127.413 33.088C128.49 33.088 129.376 33.3493 130.069 33.872C130.773 34.3947 131.237 35.12 131.461 36.048H129.893C129.744 35.5147 129.45 35.0933 129.013 34.784C128.586 34.4747 128.053 34.32 127.413 34.32C126.581 34.32 125.909 34.608 125.397 35.184C124.885 35.7493 124.629 36.5547 124.629 37.6C124.629 38.656 124.885 39.472 125.397 40.048C125.909 40.624 126.581 40.912 127.413 40.912C128.053 40.912 128.586 40.7627 129.013 40.464C129.44 40.1653 129.733 39.7387 129.893 39.184H131.461C131.226 40.08 130.757 40.8 130.053 41.344C129.349 41.8773 128.469 42.144 127.413 42.144C126.581 42.144 125.84 41.9573 125.189 41.584C124.549 41.2107 124.048 40.6827 123.685 40C123.322 39.3173 123.141 38.5173 123.141 37.6ZM134.156 31.808C133.879 31.808 133.644 31.712 133.452 31.52C133.26 31.328 133.164 31.0933 133.164 30.816C133.164 30.5387 133.26 30.304 133.452 30.112C133.644 29.92 133.879 29.824 134.156 29.824C134.423 29.824 134.647 29.92 134.828 30.112C135.02 30.304 135.116 30.5387 135.116 30.816C135.116 31.0933 135.02 31.328 134.828 31.52C134.647 31.712 134.423 31.808 134.156 31.808ZM134.86 33.232V42H133.404V33.232H134.86ZM147.885 33.072C148.568 33.072 149.176 33.216 149.709 33.504C150.243 33.7813 150.664 34.2027 150.973 34.768C151.283 35.3333 151.437 36.0213 151.437 36.832V42H149.997V37.04C149.997 36.1653 149.779 35.4987 149.341 35.04C148.915 34.5707 148.333 34.336 147.597 34.336C146.84 34.336 146.237 34.5813 145.789 35.072C145.341 35.552 145.117 36.2507 145.117 37.168V42H143.677V37.04C143.677 36.1653 143.459 35.4987 143.021 35.04C142.595 34.5707 142.013 34.336 141.277 34.336C140.52 34.336 139.917 34.5813 139.469 35.072C139.021 35.552 138.797 36.2507 138.797 37.168V42H137.341V33.232H138.797V34.496C139.085 34.0373 139.469 33.6853 139.949 33.44C140.44 33.1947 140.979 33.072 141.565 33.072C142.301 33.072 142.952 33.2373 143.517 33.568C144.083 33.8987 144.504 34.384 144.781 35.024C145.027 34.4053 145.432 33.9253 145.997 33.584C146.563 33.2427 147.192 33.072 147.885 33.072ZM161.826 37.28C161.826 37.5573 161.81 37.8507 161.778 38.16H154.77C154.823 39.024 155.116 39.7013 155.65 40.192C156.194 40.672 156.85 40.912 157.618 40.912C158.247 40.912 158.77 40.768 159.186 40.48C159.612 40.1813 159.911 39.7867 160.082 39.296H161.65C161.415 40.1387 160.946 40.8267 160.242 41.36C159.538 41.8827 158.663 42.144 157.618 42.144C156.786 42.144 156.039 41.9573 155.378 41.584C154.727 41.2107 154.215 40.6827 153.842 40C153.468 39.3067 153.282 38.5067 153.282 37.6C153.282 36.6933 153.463 35.8987 153.826 35.216C154.188 34.5333 154.695 34.0107 155.346 33.648C156.007 33.2747 156.764 33.088 157.618 33.088C158.45 33.088 159.186 33.2693 159.826 33.632C160.466 33.9947 160.956 34.496 161.298 35.136C161.65 35.7653 161.826 36.48 161.826 37.28ZM160.322 36.976C160.322 36.4213 160.199 35.9467 159.954 35.552C159.708 35.1467 159.372 34.8427 158.946 34.64C158.53 34.4267 158.066 34.32 157.554 34.32C156.818 34.32 156.188 34.5547 155.666 35.024C155.154 35.4933 154.86 36.144 154.786 36.976H160.322ZM168.02 33.072C169.086 33.072 169.95 33.3973 170.612 34.048C171.273 34.688 171.604 35.616 171.604 36.832V42H170.164V37.04C170.164 36.1653 169.945 35.4987 169.508 35.04C169.07 34.5707 168.473 34.336 167.716 34.336C166.948 34.336 166.334 34.576 165.876 35.056C165.428 35.536 165.204 36.2347 165.204 37.152V42H163.748V33.232H165.204V34.48C165.492 34.032 165.881 33.6853 166.372 33.44C166.873 33.1947 167.422 33.072 168.02 33.072ZM175.758 34.432V39.6C175.758 40.0267 175.849 40.3307 176.03 40.512C176.211 40.6827 176.526 40.768 176.974 40.768H178.046V42H176.734C175.923 42 175.315 41.8133 174.91 41.44C174.505 41.0667 174.302 40.4533 174.302 39.6V34.432H173.166V33.232H174.302V31.024H175.758V33.232H178.046V34.432H175.758ZM183.634 42.144C182.813 42.144 182.066 41.9573 181.394 41.584C180.733 41.2107 180.21 40.6827 179.826 40C179.453 39.3067 179.266 38.5067 179.266 37.6C179.266 36.704 179.458 35.9147 179.842 35.232C180.237 34.5387 180.77 34.0107 181.442 33.648C182.114 33.2747 182.866 33.088 183.698 33.088C184.53 33.088 185.282 33.2747 185.954 33.648C186.626 34.0107 187.154 34.5333 187.538 35.216C187.933 35.8987 188.13 36.6933 188.13 37.6C188.13 38.5067 187.927 39.3067 187.522 40C187.127 40.6827 186.589 41.2107 185.906 41.584C185.223 41.9573 184.466 42.144 183.634 42.144ZM183.634 40.864C184.157 40.864 184.647 40.7413 185.106 40.496C185.565 40.2507 185.933 39.8827 186.21 39.392C186.498 38.9013 186.642 38.304 186.642 37.6C186.642 36.896 186.503 36.2987 186.226 35.808C185.949 35.3173 185.586 34.9547 185.138 34.72C184.69 34.4747 184.205 34.352 183.682 34.352C183.149 34.352 182.658 34.4747 182.21 34.72C181.773 34.9547 181.421 35.3173 181.154 35.808C180.887 36.2987 180.754 36.896 180.754 37.6C180.754 38.3147 180.882 38.9173 181.138 39.408C181.405 39.8987 181.757 40.2667 182.194 40.512C182.631 40.7467 183.111 40.864 183.634 40.864Z" fill="#C1BCCC"/>
<path d="M0.5 8C0.5 3.85786 3.85786 0.5 8 0.5H344C348.142 0.5 351.5 3.85786 351.5 8V71.5H0.5V8Z" fill="#FAFAFC" stroke="#E6E6F0"/>
<path d="M18.608 41.76V40.432H21.616V52H20.144V41.76H18.608ZM26.229 45.984C25.6317 45.7493 25.173 45.408 24.853 44.96C24.533 44.512 24.373 43.968 24.373 43.328C24.373 42.752 24.517 42.2347 24.805 41.776C25.093 41.3067 25.5197 40.9387 26.085 40.672C26.661 40.3947 27.3543 40.256 28.165 40.256C28.9757 40.256 29.6637 40.3947 30.229 40.672C30.805 40.9387 31.237 41.3067 31.525 41.776C31.8237 42.2347 31.973 42.752 31.973 43.328C31.973 43.9467 31.8077 44.4907 31.477 44.96C31.1463 45.4187 30.693 45.76 30.117 45.984C30.7783 46.1867 31.301 46.544 31.685 47.056C32.0797 47.5573 32.277 48.1653 32.277 48.88C32.277 49.5733 32.1063 50.1813 31.765 50.704C31.4237 51.216 30.9383 51.616 30.309 51.904C29.6903 52.1813 28.9757 52.32 28.165 52.32C27.3543 52.32 26.6397 52.1813 26.021 51.904C25.413 51.616 24.9383 51.216 24.597 50.704C24.2557 50.1813 24.085 49.5733 24.085 48.88C24.085 48.1653 24.277 47.552 24.661 47.04C25.045 46.528 25.5677 46.176 26.229 45.984ZM30.565 43.504C30.565 42.8533 30.3517 42.352 29.925 42C29.4983 41.648 28.9117 41.472 28.165 41.472C27.429 41.472 26.8477 41.648 26.421 42C25.9943 42.352 25.781 42.8587 25.781 43.52C25.781 44.1173 25.9997 44.5973 26.437 44.96C26.885 45.3227 27.461 45.504 28.165 45.504C28.8797 45.504 29.4557 45.3227 29.893 44.96C30.341 44.5867 30.565 44.1013 30.565 43.504ZM28.165 46.624C27.3757 46.624 26.7303 46.8107 26.229 47.184C25.7277 47.5467 25.477 48.096 25.477 48.832C25.477 49.5147 25.717 50.064 26.197 50.48C26.6877 50.896 27.3437 51.104 28.165 51.104C28.9863 51.104 29.637 50.896 30.117 50.48C30.597 50.064 30.837 49.5147 30.837 48.832C30.837 48.1173 30.5917 47.5733 30.101 47.2C29.6103 46.816 28.965 46.624 28.165 46.624ZM39.8908 36.928L35.5068 54.72H34.0668L38.4348 36.928H39.8908ZM41.8201 46.096C41.8201 44.2613 42.1188 42.832 42.7161 41.808C43.3135 40.7733 44.3588 40.256 45.8521 40.256C47.3348 40.256 48.3748 40.7733 48.9721 41.808C49.5695 42.832 49.8681 44.2613 49.8681 46.096C49.8681 47.9627 49.5695 49.4133 48.9721 50.448C48.3748 51.4827 47.3348 52 45.8521 52C44.3588 52 43.3135 51.4827 42.7161 50.448C42.1188 49.4133 41.8201 47.9627 41.8201 46.096ZM48.4281 46.096C48.4281 45.168 48.3641 44.384 48.2361 43.744C48.1188 43.0933 47.8681 42.5707 47.4841 42.176C47.1108 41.7813 46.5668 41.584 45.8521 41.584C45.1268 41.584 44.5721 41.7813 44.1881 42.176C43.8148 42.5707 43.5641 43.0933 43.4361 43.744C43.3188 44.384 43.2601 45.168 43.2601 46.096C43.2601 47.056 43.3188 47.8613 43.4361 48.512C43.5641 49.1627 43.8148 49.6853 44.1881 50.08C44.5721 50.4747 45.1268 50.672 45.8521 50.672C46.5668 50.672 47.1108 50.4747 47.4841 50.08C47.8681 49.6853 48.1188 49.1627 48.2361 48.512C48.3641 47.8613 48.4281 47.056 48.4281 46.096ZM51.483 41.76V40.432H54.491V52H53.019V41.76H51.483ZM62.672 36.928L58.288 54.72H56.848L61.216 36.928H62.672ZM64.4254 50.832C65.78 49.744 66.8414 48.8533 67.6094 48.16C68.3774 47.456 69.0227 46.7253 69.5454 45.968C70.0787 45.2 70.3454 44.448 70.3454 43.712C70.3454 43.0187 70.1747 42.4747 69.8334 42.08C69.5027 41.6747 68.964 41.472 68.2174 41.472C67.492 41.472 66.9267 41.7013 66.5214 42.16C66.1267 42.608 65.9134 43.2107 65.8814 43.968H64.4734C64.516 42.7733 64.8787 41.8507 65.5614 41.2C66.244 40.5493 67.124 40.224 68.2014 40.224C69.3 40.224 70.1694 40.528 70.8094 41.136C71.46 41.744 71.7854 42.5813 71.7854 43.648C71.7854 44.5333 71.5187 45.3973 70.9854 46.24C70.4627 47.072 69.8654 47.808 69.1934 48.448C68.5214 49.0773 67.6627 49.8133 66.6174 50.656H72.1214V51.872H64.4254V50.832ZM73.8045 46.096C73.8045 44.2613 74.1032 42.832 74.7005 41.808C75.2978 40.7733 76.3432 40.256 77.8365 40.256C79.3192 40.256 80.3592 40.7733 80.9565 41.808C81.5538 42.832 81.8525 44.2613 81.8525 46.096C81.8525 47.9627 81.5538 49.4133 80.9565 50.448C80.3592 51.4827 79.3192 52 77.8365 52C76.3432 52 75.2978 51.4827 74.7005 50.448C74.1032 49.4133 73.8045 47.9627 73.8045 46.096ZM80.4125 46.096C80.4125 45.168 80.3485 44.384 80.2205 43.744C80.1032 43.0933 79.8525 42.5707 79.4685 42.176C79.0952 41.7813 78.5512 41.584 77.8365 41.584C77.1112 41.584 76.5565 41.7813 76.1725 42.176C75.7992 42.5707 75.5485 43.0933 75.4205 43.744C75.3032 44.384 75.2445 45.168 75.2445 46.096C75.2445 47.056 75.3032 47.8613 75.4205 48.512C75.5485 49.1627 75.7992 49.6853 76.1725 50.08C76.5565 50.4747 77.1112 50.672 77.8365 50.672C78.5512 50.672 79.0952 50.4747 79.4685 50.08C79.8525 49.6853 80.1032 49.1627 80.2205 48.512C80.3485 47.8613 80.4125 47.056 80.4125 46.096ZM83.6754 50.832C85.03 49.744 86.0914 48.8533 86.8594 48.16C87.6274 47.456 88.2727 46.7253 88.7954 45.968C89.3287 45.2 89.5954 44.448 89.5954 43.712C89.5954 43.0187 89.4247 42.4747 89.0834 42.08C88.7527 41.6747 88.214 41.472 87.4674 41.472C86.742 41.472 86.1767 41.7013 85.7714 42.16C85.3767 42.608 85.1634 43.2107 85.1314 43.968H83.7234C83.766 42.7733 84.1287 41.8507 84.8114 41.2C85.494 40.5493 86.374 40.224 87.4514 40.224C88.55 40.224 89.4194 40.528 90.0594 41.136C90.71 41.744 91.0354 42.5813 91.0354 43.648C91.0354 44.5333 90.7687 45.3973 90.2354 46.24C89.7127 47.072 89.1154 47.808 88.4434 48.448C87.7714 49.0773 86.9127 49.8133 85.8674 50.656H91.3714V51.872H83.6754V50.832ZM93.0545 46.096C93.0545 44.2613 93.3532 42.832 93.9505 41.808C94.5478 40.7733 95.5932 40.256 97.0865 40.256C98.5692 40.256 99.6092 40.7733 100.207 41.808C100.804 42.832 101.102 44.2613 101.102 46.096C101.102 47.9627 100.804 49.4133 100.207 50.448C99.6092 51.4827 98.5692 52 97.0865 52C95.5932 52 94.5478 51.4827 93.9505 50.448C93.3532 49.4133 93.0545 47.9627 93.0545 46.096ZM99.6625 46.096C99.6625 45.168 99.5985 44.384 99.4705 43.744C99.3532 43.0933 99.1025 42.5707 98.7185 42.176C98.3452 41.7813 97.8012 41.584 97.0865 41.584C96.3612 41.584 95.8065 41.7813 95.4225 42.176C95.0492 42.5707 94.7985 43.0933 94.6705 43.744C94.5532 44.384 94.4945 45.168 94.4945 46.096C94.4945 47.056 94.5532 47.8613 94.6705 48.512C94.7985 49.1627 95.0492 49.6853 95.4225 50.08C95.8065 50.4747 96.3612 50.672 97.0865 50.672C97.8012 50.672 98.3452 50.4747 98.7185 50.08C99.1025 49.6853 99.3532 49.1627 99.4705 48.512C99.5985 47.8613 99.6625 47.056 99.6625 46.096Z" fill="#6A6180"/>
<path d="M19.528 19.636C20.44 19.636 21.228 19.808 21.892 20.152C22.564 20.488 23.076 20.972 23.428 21.604C23.788 22.236 23.968 22.98 23.968 23.836C23.968 24.692 23.788 25.436 23.428 26.068C23.076 26.692 22.564 27.172 21.892 27.508C21.228 27.836 20.44 28 19.528 28H16.924V19.636H19.528ZM19.528 27.1C20.608 27.1 21.432 26.816 22 26.248C22.568 25.672 22.852 24.868 22.852 23.836C22.852 22.796 22.564 21.984 21.988 21.4C21.42 20.816 20.6 20.524 19.528 20.524H18.016V27.1H19.528ZM25.0004 24.688C25.0004 24.016 25.1364 23.428 25.4084 22.924C25.6804 22.412 26.0524 22.016 26.5244 21.736C27.0044 21.456 27.5364 21.316 28.1204 21.316C28.6964 21.316 29.1964 21.44 29.6204 21.688C30.0444 21.936 30.3604 22.248 30.5684 22.624V21.424H31.6724V28H30.5684V26.776C30.3524 27.16 30.0284 27.48 29.5964 27.736C29.1724 27.984 28.6764 28.108 28.1084 28.108C27.5244 28.108 26.9964 27.964 26.5244 27.676C26.0524 27.388 25.6804 26.984 25.4084 26.464C25.1364 25.944 25.0004 25.352 25.0004 24.688ZM30.5684 24.7C30.5684 24.204 30.4684 23.772 30.2684 23.404C30.0684 23.036 29.7964 22.756 29.4524 22.564C29.1164 22.364 28.7444 22.264 28.3364 22.264C27.9284 22.264 27.5564 22.36 27.2204 22.552C26.8844 22.744 26.6164 23.024 26.4164 23.392C26.2164 23.76 26.1164 24.192 26.1164 24.688C26.1164 25.192 26.2164 25.632 26.4164 26.008C26.6164 26.376 26.8844 26.66 27.2204 26.86C27.5564 27.052 27.9284 27.148 28.3364 27.148C28.7444 27.148 29.1164 27.052 29.4524 26.86C29.7964 26.66 30.0684 26.376 30.2684 26.008C30.4684 25.632 30.5684 25.196 30.5684 24.7ZM34.8498 22.324V26.2C34.8498 26.52 34.9178 26.748 35.0538 26.884C35.1898 27.012 35.4258 27.076 35.7617 27.076H36.5658V28H35.5818C34.9738 28 34.5178 27.86 34.2138 27.58C33.9098 27.3 33.7578 26.84 33.7578 26.2V22.324H32.9058V21.424H33.7578V19.768H34.8498V21.424H36.5658V22.324H34.8498ZM37.4808 24.688C37.4808 24.016 37.6168 23.428 37.8888 22.924C38.1608 22.412 38.5328 22.016 39.0048 21.736C39.4848 21.456 40.0168 21.316 40.6008 21.316C41.1768 21.316 41.6768 21.44 42.1008 21.688C42.5248 21.936 42.8408 22.248 43.0488 22.624V21.424H44.1528V28H43.0488V26.776C42.8328 27.16 42.5088 27.48 42.0768 27.736C41.6528 27.984 41.1568 28.108 40.5888 28.108C40.0048 28.108 39.4768 27.964 39.0048 27.676C38.5328 27.388 38.1608 26.984 37.8888 26.464C37.6168 25.944 37.4808 25.352 37.4808 24.688ZM43.0488 24.7C43.0488 24.204 42.9488 23.772 42.7488 23.404C42.5488 23.036 42.2768 22.756 41.9328 22.564C41.5968 22.364 41.2248 22.264 40.8168 22.264C40.4088 22.264 40.0368 22.36 39.7008 22.552C39.3648 22.744 39.0968 23.024 38.8968 23.392C38.6968 23.76 38.5968 24.192 38.5968 24.688C38.5968 25.192 38.6968 25.632 38.8968 26.008C39.0968 26.376 39.3648 26.66 39.7008 26.86C40.0368 27.052 40.4088 27.148 40.8168 27.148C41.2248 27.148 41.5968 27.052 41.9328 26.86C42.2768 26.66 42.5488 26.376 42.7488 26.008C42.9488 25.632 43.0488 25.196 43.0488 24.7ZM48.7894 24.688C48.7894 24.016 48.9254 23.428 49.1974 22.924C49.4694 22.412 49.8414 22.016 50.3134 21.736C50.7934 21.456 51.3294 21.316 51.9214 21.316C52.4334 21.316 52.9094 21.436 53.3494 21.676C53.7894 21.908 54.1254 22.216 54.3574 22.6V19.12H55.4614V28H54.3574V26.764C54.1414 27.156 53.8214 27.48 53.3974 27.736C52.9734 27.984 52.4774 28.108 51.9094 28.108C51.3254 28.108 50.7934 27.964 50.3134 27.676C49.8414 27.388 49.4694 26.984 49.1974 26.464C48.9254 25.944 48.7894 25.352 48.7894 24.688ZM54.3574 24.7C54.3574 24.204 54.2574 23.772 54.0574 23.404C53.8574 23.036 53.5854 22.756 53.2414 22.564C52.9054 22.364 52.5334 22.264 52.1254 22.264C51.7174 22.264 51.3454 22.36 51.0094 22.552C50.6734 22.744 50.4054 23.024 50.2054 23.392C50.0054 23.76 49.9054 24.192 49.9054 24.688C49.9054 25.192 50.0054 25.632 50.2054 26.008C50.4054 26.376 50.6734 26.66 51.0094 26.86C51.3454 27.052 51.7174 27.148 52.1254 27.148C52.5334 27.148 52.9054 27.052 53.2414 26.86C53.5854 26.66 53.8574 26.376 54.0574 26.008C54.2574 25.632 54.3574 25.196 54.3574 24.7ZM63.3068 24.46C63.3068 24.668 63.2948 24.888 63.2708 25.12H58.0148C58.0548 25.768 58.2748 26.276 58.6748 26.644C59.0828 27.004 59.5748 27.184 60.1508 27.184C60.6228 27.184 61.0148 27.076 61.3268 26.86C61.6468 26.636 61.8708 26.34 61.9988 25.972H63.1748C62.9988 26.604 62.6468 27.12 62.1188 27.52C61.5908 27.912 60.9348 28.108 60.1508 28.108C59.5268 28.108 58.9668 27.968 58.4708 27.688C57.9828 27.408 57.5988 27.012 57.3188 26.5C57.0388 25.98 56.8988 25.38 56.8988 24.7C56.8988 24.02 57.0348 23.424 57.3068 22.912C57.5788 22.4 57.9588 22.008 58.4468 21.736C58.9428 21.456 59.5108 21.316 60.1508 21.316C60.7748 21.316 61.3268 21.452 61.8068 21.724C62.2868 21.996 62.6548 22.372 62.9108 22.852C63.1748 23.324 63.3068 23.86 63.3068 24.46ZM62.1788 24.232C62.1788 23.816 62.0868 23.46 61.9028 23.164C61.7188 22.86 61.4668 22.632 61.1468 22.48C60.8348 22.32 60.4868 22.24 60.1028 22.24C59.5508 22.24 59.0788 22.416 58.6868 22.768C58.3028 23.12 58.0828 23.608 58.0268 24.232H62.1788ZM74.5234 28H73.4314L69.0394 21.34V28H67.9474V19.624H69.0394L73.4314 26.272V19.624H74.5234V28ZM75.9769 24.688C75.9769 24.016 76.1129 23.428 76.3849 22.924C76.6569 22.412 77.0289 22.016 77.5009 21.736C77.9809 21.456 78.5129 21.316 79.0969 21.316C79.6729 21.316 80.1729 21.44 80.5969 21.688C81.0209 21.936 81.3369 22.248 81.5449 22.624V21.424H82.6489V28H81.5449V26.776C81.3289 27.16 81.0049 27.48 80.5729 27.736C80.1489 27.984 79.6529 28.108 79.0849 28.108C78.5009 28.108 77.9729 27.964 77.5009 27.676C77.0289 27.388 76.6569 26.984 76.3849 26.464C76.1129 25.944 75.9769 25.352 75.9769 24.688ZM81.5449 24.7C81.5449 24.204 81.4449 23.772 81.2449 23.404C81.0449 23.036 80.7729 22.756 80.4289 22.564C80.0929 22.364 79.7209 22.264 79.3129 22.264C78.9049 22.264 78.5329 22.36 78.1969 22.552C77.8609 22.744 77.5929 23.024 77.3929 23.392C77.1929 23.76 77.0929 24.192 77.0929 24.688C77.0929 25.192 77.1929 25.632 77.3929 26.008C77.5929 26.376 77.8609 26.66 78.1969 26.86C78.5329 27.052 78.9049 27.148 79.3129 27.148C79.7209 27.148 80.0929 27.052 80.4289 26.86C80.7729 26.66 81.0449 26.376 81.2449 26.008C81.4449 25.632 81.5449 25.196 81.5449 24.7ZM86.8223 28.108C86.3183 28.108 85.8663 28.024 85.4663 27.856C85.0663 27.68 84.7503 27.44 84.5183 27.136C84.2863 26.824 84.1583 26.468 84.1343 26.068H85.2623C85.2943 26.396 85.4463 26.664 85.7183 26.872C85.9983 27.08 86.3623 27.184 86.8103 27.184C87.2263 27.184 87.5543 27.092 87.7943 26.908C88.0343 26.724 88.1543 26.492 88.1543 26.212C88.1543 25.924 88.0263 25.712 87.7703 25.576C87.5143 25.432 87.1183 25.292 86.5823 25.156C86.0943 25.028 85.6943 24.9 85.3823 24.772C85.0783 24.636 84.8143 24.44 84.5903 24.184C84.3743 23.92 84.2663 23.576 84.2663 23.152C84.2663 22.816 84.3663 22.508 84.5663 22.228C84.7663 21.948 85.0503 21.728 85.4183 21.568C85.7863 21.4 86.2063 21.316 86.6783 21.316C87.4063 21.316 87.9943 21.5 88.4423 21.868C88.8903 22.236 89.1303 22.74 89.1623 23.38H88.0703C88.0463 23.036 87.9063 22.76 87.6503 22.552C87.4023 22.344 87.0663 22.24 86.6423 22.24C86.2503 22.24 85.9383 22.324 85.7063 22.492C85.4743 22.66 85.3583 22.88 85.3583 23.152C85.3583 23.368 85.4263 23.548 85.5623 23.692C85.7063 23.828 85.8823 23.94 86.0903 24.028C86.3063 24.108 86.6023 24.2 86.9783 24.304C87.4503 24.432 87.8343 24.56 88.1303 24.688C88.4263 24.808 88.6783 24.992 88.8863 25.24C89.1023 25.488 89.2143 25.812 89.2223 26.212C89.2223 26.572 89.1223 26.896 88.9223 27.184C88.7223 27.472 88.4383 27.7 88.0703 27.868C87.7103 28.028 87.2943 28.108 86.8223 28.108ZM90.3558 24.7C90.3558 24.02 90.4918 23.428 90.7638 22.924C91.0358 22.412 91.4118 22.016 91.8918 21.736C92.3798 21.456 92.9358 21.316 93.5598 21.316C94.3678 21.316 95.0318 21.512 95.5518 21.904C96.0798 22.296 96.4278 22.84 96.5958 23.536H95.4198C95.3078 23.136 95.0878 22.82 94.7598 22.588C94.4398 22.356 94.0398 22.24 93.5598 22.24C92.9358 22.24 92.4318 22.456 92.0478 22.888C91.6638 23.312 91.4718 23.916 91.4718 24.7C91.4718 25.492 91.6638 26.104 92.0478 26.536C92.4318 26.968 92.9358 27.184 93.5598 27.184C94.0398 27.184 94.4398 27.072 94.7598 26.848C95.0798 26.624 95.2998 26.304 95.4198 25.888H96.5958C96.4198 26.56 96.0678 27.1 95.5398 27.508C95.0118 27.908 94.3518 28.108 93.5598 28.108C92.9358 28.108 92.3798 27.968 91.8918 27.688C91.4118 27.408 91.0358 27.012 90.7638 26.5C90.4918 25.988 90.3558 25.388 90.3558 24.7ZM98.6169 20.356C98.4089 20.356 98.2329 20.284 98.0889 20.14C97.9449 19.996 97.8729 19.82 97.8729 19.612C97.8729 19.404 97.9449 19.228 98.0889 19.084C98.2329 18.94 98.4089 18.868 98.6169 18.868C98.8169 18.868 98.9849 18.94 99.1209 19.084C99.2649 19.228 99.3369 19.404 99.3369 19.612C99.3369 19.82 99.2649 19.996 99.1209 20.14C98.9849 20.284 98.8169 20.356 98.6169 20.356ZM99.1449 21.424V28H98.0529V21.424H99.1449ZM108.914 21.304C109.426 21.304 109.882 21.412 110.282 21.628C110.682 21.836 110.998 22.152 111.23 22.576C111.462 23 111.578 23.516 111.578 24.124V28H110.498V24.28C110.498 23.624 110.334 23.124 110.006 22.78C109.686 22.428 109.25 22.252 108.698 22.252C108.13 22.252 107.678 22.436 107.342 22.804C107.006 23.164 106.838 23.688 106.838 24.376V28H105.758V24.28C105.758 23.624 105.594 23.124 105.266 22.78C104.946 22.428 104.51 22.252 103.958 22.252C103.39 22.252 102.938 22.436 102.602 22.804C102.266 23.164 102.098 23.688 102.098 24.376V28H101.006V21.424H102.098V22.372C102.314 22.028 102.602 21.764 102.962 21.58C103.33 21.396 103.734 21.304 104.174 21.304C104.726 21.304 105.214 21.428 105.638 21.676C106.062 21.924 106.378 22.288 106.586 22.768C106.77 22.304 107.074 21.944 107.498 21.688C107.922 21.432 108.394 21.304 108.914 21.304ZM119.369 24.46C119.369 24.668 119.357 24.888 119.333 25.12H114.077C114.117 25.768 114.337 26.276 114.737 26.644C115.145 27.004 115.637 27.184 116.213 27.184C116.685 27.184 117.077 27.076 117.389 26.86C117.709 26.636 117.933 26.34 118.061 25.972H119.237C119.061 26.604 118.709 27.12 118.181 27.52C117.653 27.912 116.997 28.108 116.213 28.108C115.589 28.108 115.029 27.968 114.533 27.688C114.045 27.408 113.661 27.012 113.381 26.5C113.101 25.98 112.961 25.38 112.961 24.7C112.961 24.02 113.097 23.424 113.369 22.912C113.641 22.4 114.021 22.008 114.509 21.736C115.005 21.456 115.573 21.316 116.213 21.316C116.837 21.316 117.389 21.452 117.869 21.724C118.349 21.996 118.717 22.372 118.973 22.852C119.237 23.324 119.369 23.86 119.369 24.46ZM118.241 24.232C118.241 23.816 118.149 23.46 117.965 23.164C117.781 22.86 117.529 22.632 117.209 22.48C116.897 22.32 116.549 22.24 116.165 22.24C115.613 22.24 115.141 22.416 114.749 22.768C114.365 23.12 114.145 23.608 114.089 24.232H118.241ZM124.015 21.304C124.815 21.304 125.463 21.548 125.959 22.036C126.455 22.516 126.703 23.212 126.703 24.124V28H125.623V24.28C125.623 23.624 125.459 23.124 125.131 22.78C124.803 22.428 124.355 22.252 123.787 22.252C123.211 22.252 122.751 22.432 122.407 22.792C122.071 23.152 121.903 23.676 121.903 24.364V28H120.811V21.424H121.903V22.36C122.119 22.024 122.411 21.764 122.779 21.58C123.155 21.396 123.567 21.304 124.015 21.304ZM129.819 22.324V26.2C129.819 26.52 129.887 26.748 130.023 26.884C130.159 27.012 130.395 27.076 130.73 27.076H131.535V28H130.551C129.943 28 129.487 27.86 129.183 27.58C128.879 27.3 128.727 26.84 128.727 26.2V22.324H127.875V21.424H128.727V19.768H129.819V21.424H131.535V22.324H129.819ZM135.726 28.108C135.11 28.108 134.55 27.968 134.046 27.688C133.55 27.408 133.158 27.012 132.87 26.5C132.59 25.98 132.45 25.38 132.45 24.7C132.45 24.028 132.594 23.436 132.882 22.924C133.178 22.404 133.578 22.008 134.082 21.736C134.586 21.456 135.15 21.316 135.774 21.316C136.398 21.316 136.962 21.456 137.466 21.736C137.97 22.008 138.366 22.4 138.654 22.912C138.95 23.424 139.098 24.02 139.098 24.7C139.098 25.38 138.946 25.98 138.642 26.5C138.346 27.012 137.942 27.408 137.43 27.688C136.918 27.968 136.35 28.108 135.726 28.108ZM135.726 27.148C136.118 27.148 136.486 27.056 136.83 26.872C137.174 26.688 137.45 26.412 137.658 26.044C137.874 25.676 137.982 25.228 137.982 24.7C137.982 24.172 137.878 23.724 137.67 23.356C137.462 22.988 137.19 22.716 136.854 22.54C136.518 22.356 136.154 22.264 135.762 22.264C135.362 22.264 134.994 22.356 134.658 22.54C134.33 22.716 134.066 22.988 133.866 23.356C133.666 23.724 133.566 24.172 133.566 24.7C133.566 25.236 133.662 25.688 133.854 26.056C134.054 26.424 134.318 26.7 134.646 26.884C134.974 27.06 135.334 27.148 135.726 27.148Z" fill="#C1BCCC"/>
<defs>
<clipPath id="clip0_286_624">
<rect width="276.46" height="50.18" fill="white" transform="translate(37.77 116.55)"/>
</clipPath>
<clipPath id="clip1_286_624">
<rect width="276.46" height="50.18" fill="white" transform="translate(37.77 166.73)"/>
</clipPath>
<clipPath id="clip2_286_624">
<rect width="276.46" height="50.18" fill="white" transform="translate(37.77 216.91)"/>
</clipPath>
<clipPath id="clip3_286_624">
<rect width="276.46" height="50.18" fill="white" transform="translate(37.77 267.09)"/>
</clipPath>
<clipPath id="clip4_286_624">
<rect width="276.46" height="50.18" fill="white" transform="translate(37.77 317.27)"/>
</clipPath>
</defs>
</svg>
